<svg width="557" height="101" viewBox="0 0 557 101" fill="none" xmlns="http://www.w3.org/2000/svg">
<path d="M8.65664 59.2C8.45664 60.4 8.35664 61.4333 8.35664 62.3C8.35664 64.4333 8.92331 65.9333 10.0566 66.8C11.2566 67.6 13.19 68 15.8566 68H22.2566L21.1566 74H13.6566C9.52331 74 6.42331 73.2 4.35664 71.6C2.28997 70 1.25664 67.3667 1.25664 63.7C1.25664 62.2333 1.38997 60.7333 1.65664 59.2L7.65664 25.3H0.0566409L1.15664 19.4H8.75664L11.1566 5.7H18.1566L15.7566 19.4H30.8566L29.7566 25.3H14.6566L8.65664 59.2ZM66.1012 18.6C70.7012 18.6 74.6345 19.5 77.9012 21.3C81.1678 23.0333 83.6345 25.4333 85.3012 28.5C87.0345 31.5667 87.9012 35.0667 87.9012 39C87.9012 40.8 87.7678 42.4 87.5012 43.8C87.1012 45.8 86.7012 47.6 86.3012 49.2H41.0012C40.8012 50.4667 40.7012 51.6667 40.7012 52.8C40.7012 57.9333 42.2345 61.9 45.3012 64.7C48.4345 67.5 52.4012 68.9 57.2012 68.9C61.8012 68.9 65.8345 67.8 69.3012 65.6C72.7678 63.4 75.3012 60.4333 76.9012 56.7H84.4012C82.1345 62.0333 78.5012 66.4 73.5012 69.8C68.5678 73.1333 62.8012 74.8 56.2012 74.8C49.4012 74.8 43.9345 72.8667 39.8012 69C35.7345 65.0667 33.7012 59.7333 33.7012 53C33.7012 51 33.9012 48.9 34.3012 46.7C35.3012 41.0333 37.3012 36.0667 40.3012 31.8C43.3678 27.5333 47.1345 24.2667 51.6012 22C56.0678 19.7333 60.9012 18.6 66.1012 18.6ZM80.3012 44C80.6345 42.1333 80.8012 40.5667 80.8012 39.3C80.8012 34.5667 79.3012 30.9333 76.3012 28.4C73.3012 25.8667 69.4678 24.6 64.8012 24.6C61.4012 24.6 58.1345 25.3333 55.0012 26.8C51.8678 28.2667 49.1345 30.4667 46.8012 33.4C44.4678 36.3333 42.8678 39.8667 42.0012 44H80.3012ZM96.5082 46.7C97.5082 41.0333 99.5082 36.1 102.508 31.9C105.575 27.6333 109.308 24.3667 113.708 22.1C118.108 19.7667 122.875 18.6 128.008 18.6C134.742 18.6 139.975 20.2667 143.708 23.6C147.508 26.9333 149.542 31.4667 149.808 37.2H142.308C142.108 33.2667 140.642 30.2 137.908 28C135.242 25.7333 131.608 24.6 127.008 24.6C121.342 24.6 116.342 26.5333 112.008 30.4C107.742 34.2 104.975 39.6333 103.708 46.7C103.375 48.3667 103.208 50.2667 103.208 52.4C103.208 57.7333 104.642 61.8333 107.508 64.7C110.442 67.5 114.308 68.9 119.108 68.9C123.775 68.9 127.842 67.8 131.308 65.6C134.775 63.3333 137.342 60.2 139.008 56.2H146.508C144.242 61.8 140.608 66.3 135.608 69.7C130.608 73.1 124.775 74.8 118.108 74.8C111.375 74.8 105.975 72.8667 101.908 69C97.9082 65.1333 95.9082 59.8333 95.9082 53.1C95.9082 51.0333 96.1082 48.9 96.5082 46.7ZM192.036 18.4C197.503 18.4 201.903 19.9 205.236 22.9C208.57 25.9 210.236 30.3333 210.236 36.2C210.236 38.3333 210.07 40.2667 209.736 42L204.036 74H197.136L202.636 42.8C202.903 41.2667 203.036 39.6333 203.036 37.9C203.036 33.5 201.836 30.1667 199.436 27.9C197.036 25.6333 193.67 24.5 189.336 24.5C184.07 24.5 179.57 26.1667 175.836 29.5C172.103 32.8333 169.67 37.7333 168.536 44.2V44.1L163.236 74H156.236L169.336 -9.53674e-07H176.336L171.236 28.7C173.57 25.3667 176.57 22.8333 180.236 21.1C183.903 19.3 187.836 18.4 192.036 18.4ZM255.018 18.4C260.618 18.4 265.084 19.9333 268.418 23C271.818 26 273.518 30.4 273.518 36.2C273.518 38.3333 273.351 40.2667 273.018 42L267.318 74H260.418L265.918 42.8C266.184 41.2667 266.318 39.6333 266.318 37.9C266.318 33.5 265.118 30.1667 262.718 27.9C260.318 25.6333 256.951 24.5 252.618 24.5C247.351 24.5 242.851 26.1667 239.118 29.5C235.384 32.8333 232.951 37.7333 231.818 44.2V43.9L226.518 74H219.518L229.118 19.4H236.118L234.418 28.8C236.751 25.4667 239.718 22.9 243.318 21.1C246.918 19.3 250.818 18.4 255.018 18.4ZM306.799 74.8C302.265 74.8 298.265 73.9 294.799 72.1C291.332 70.2333 288.632 67.6333 286.699 64.3C284.832 60.9 283.899 56.9333 283.899 52.4C283.899 46.2667 285.299 40.6333 288.099 35.5C290.899 30.3 294.799 26.2 299.799 23.2C304.799 20.1333 310.365 18.6 316.499 18.6C321.032 18.6 325.032 19.5333 328.499 21.4C331.965 23.2 334.665 25.8 336.599 29.2C338.532 32.5333 339.499 36.4667 339.499 41C339.499 47.2 338.065 52.8667 335.199 58C332.332 63.1333 328.399 67.2333 323.399 70.3C318.465 73.3 312.932 74.8 306.799 74.8ZM307.599 68.9C312.332 68.9 316.565 67.6333 320.299 65.1C324.099 62.5667 327.032 59.2 329.099 55C331.232 50.8 332.299 46.2667 332.299 41.4C332.299 35.9333 330.699 31.7667 327.499 28.9C324.365 26.0333 320.365 24.6 315.499 24.6C310.765 24.6 306.532 25.8667 302.799 28.4C299.132 30.9333 296.265 34.3 294.199 38.5C292.132 42.7 291.099 47.2333 291.099 52.1C291.099 57.5 292.665 61.6667 295.799 64.6C298.932 67.4667 302.865 68.9 307.599 68.9ZM367.059 -9.53674e-07L353.959 74H346.959L360.059 -9.53674e-07H367.059ZM393.811 74.8C389.277 74.8 385.277 73.9 381.811 72.1C378.344 70.2333 375.644 67.6333 373.711 64.3C371.844 60.9 370.911 56.9333 370.911 52.4C370.911 46.2667 372.311 40.6333 375.111 35.5C377.911 30.3 381.811 26.2 386.811 23.2C391.811 20.1333 397.377 18.6 403.511 18.6C408.044 18.6 412.044 19.5333 415.511 21.4C418.977 23.2 421.677 25.8 423.611 29.2C425.544 32.5333 426.511 36.4667 426.511 41C426.511 47.2 425.077 52.8667 422.211 58C419.344 63.1333 415.411 67.2333 410.411 70.3C405.477 73.3 399.944 74.8 393.811 74.8ZM394.611 68.9C399.344 68.9 403.577 67.6333 407.311 65.1C411.111 62.5667 414.044 59.2 416.111 55C418.244 50.8 419.311 46.2667 419.311 41.4C419.311 35.9333 417.711 31.7667 414.511 28.9C411.377 26.0333 407.377 24.6 402.511 24.6C397.777 24.6 393.544 25.8667 389.811 28.4C386.144 30.9333 383.277 34.3 381.211 38.5C379.144 42.7 378.111 47.2333 378.111 52.1C378.111 57.5 379.677 61.6667 382.811 64.6C385.944 67.4667 389.877 68.9 394.611 68.9ZM466.671 18.6C471.804 18.6 476.037 19.8 479.371 22.2C482.771 24.6 484.971 27.6333 485.971 31.3L488.071 19.4H495.071L485.271 75.4C484.404 80.4 482.537 84.8333 479.671 88.7C476.871 92.5667 473.337 95.5333 469.071 97.6C464.804 99.7333 460.204 100.8 455.271 100.8C448.271 100.8 442.737 99.1333 438.671 95.8C434.671 92.4667 432.604 87.9333 432.471 82.2H439.371C439.904 86 441.637 89.0333 444.571 91.3C447.504 93.5667 451.437 94.7 456.371 94.7C461.771 94.7 466.504 92.9667 470.571 89.5C474.637 86.1 477.204 81.4 478.271 75.4L480.571 61.9C478.304 65.6333 475.037 68.7333 470.771 71.2C466.571 73.6 461.904 74.8 456.771 74.8C450.171 74.8 444.871 72.8333 440.871 68.9C436.937 64.9 434.971 59.5333 434.971 52.8C434.971 50.8667 435.171 48.8 435.571 46.6C436.571 41 438.571 36.1 441.571 31.9C444.571 27.6333 448.237 24.3667 452.571 22.1C456.971 19.7667 461.671 18.6 466.671 18.6ZM483.271 46.7C483.604 44.8333 483.771 43.1667 483.771 41.7C483.771 36.5 482.204 32.3667 479.071 29.3C475.937 26.2333 471.871 24.7 466.871 24.7C463.004 24.7 459.371 25.5667 455.971 27.3C452.637 29.0333 449.804 31.5667 447.471 34.9C445.137 38.1667 443.571 42.0667 442.771 46.6C442.437 48.6 442.271 50.3 442.271 51.7C442.271 56.9667 443.804 61.1333 446.871 64.2C450.004 67.2 454.071 68.7 459.071 68.7C462.804 68.7 466.371 67.8 469.771 66C473.237 64.2 476.137 61.6333 478.471 58.3C480.871 54.9667 482.471 51.1 483.271 46.7ZM512.351 19.4L522.651 65.7L548.751 19.4H556.051L509.551 99.7H502.151L517.351 73.6L504.551 19.4H512.351Z" fill="#11112B"/>
</svg>
