<svg width="140" height="140" viewBox="0 0 140 140" fill="none" xmlns="http://www.w3.org/2000/svg">
<g opacity="0.8" clip-path="url(#clip0_1_978)">
<path d="M62.589 139.853L61.515 139.729C36.9474 136.787 10.4014 111.204 2.35162 82.69L2.75863 82.5542C5.70945 90.1126 17.1962 95.6117 34.268 97.6597H34.4149L34.4489 97.8181C40.0565 117.676 49.9604 132.804 61.6394 139.333L62.589 139.864V139.853ZM3.44829 84.8511C12.052 111.871 37.0379 135.735 60.4975 139.163C49.1577 132.329 39.5704 117.438 34.0758 98.067C18.5529 96.1887 7.62014 91.4364 3.44829 84.8511Z" fill="#92DEED"/>
<path d="M41.3906 116.68C31.8937 115.549 21.6507 105.671 18.5416 94.6725L18.9599 94.5593C22.0238 105.41 32.1086 115.153 41.4472 116.261L41.4019 116.691L41.3906 116.68Z" fill="#92DEED"/>
<path d="M50.7179 130.733C32.9226 128.606 13.7027 110.084 7.88016 89.4337L8.29847 89.3206C14.0871 109.812 33.1374 128.199 50.7744 130.303L50.7292 130.733H50.7179Z" fill="#92DEED"/>
<path d="M37.004 129.964C31.2945 125.789 30.2092 114.066 34.0418 97.8181L34.4601 97.92C30.6727 113.987 31.7015 125.551 37.264 129.613L37.0153 129.964H37.004Z" fill="#92DEED"/>
<path d="M34.5393 98.1235L34.2227 98.0895C16.9814 96.0302 5.37027 90.4293 2.36292 82.7125C-1.98982 67.2902 -0.237416 53.486 7.1792 44.8074C13.013 37.9845 21.9898 34.9068 32.4477 36.1628L32.6851 36.1967L32.6286 36.4343C28.1741 55.5679 28.8412 77.9376 34.4488 97.818L34.5393 98.1235ZM27.9593 36.3212C19.5478 36.3212 12.3912 39.3649 7.50707 45.0903C0.192205 53.6557 -1.53759 67.3128 2.76993 82.5767C5.69814 90.0672 17.0605 95.5437 33.9514 97.6256C28.4228 77.8358 27.7671 55.6132 32.1651 36.5701C30.7405 36.4117 29.3386 36.3325 27.9706 36.3325L27.9593 36.3212Z" fill="#92DEED"/>
<path d="M18.5416 94.661C16.857 88.698 17.5466 83.3461 20.4183 79.9742C22.6908 77.3152 26.173 76.1158 30.2431 76.6023L30.1979 77.0323C26.2747 76.5684 22.9169 77.7112 20.7462 80.2571C17.965 83.5158 17.3092 88.7207 18.9486 94.5366L18.5302 94.6497L18.5416 94.661Z" fill="#92DEED"/>
<path d="M7.88016 89.4336C4.72584 78.2771 6.0034 68.2746 11.385 61.9835C15.6133 57.0276 22.1255 54.7985 29.7117 55.715L29.6665 56.145C22.2273 55.2511 15.8508 57.4349 11.7128 62.2664C6.43302 68.4443 5.18938 78.311 8.29848 89.3318L7.88016 89.4449V89.4336Z" fill="#92DEED"/>
<path d="M34.1323 98.0442C16.4387 86.1974 4.38667 71.3748 1.07407 57.3782L1.49238 57.2764C4.78238 71.1711 16.7665 85.8919 34.3697 97.6934L34.1323 98.0442Z" fill="#92DEED"/>
<path d="M34.0758 97.9991C20.5427 79.7367 12.4138 58.8606 11.7807 40.7454H12.2103C12.8434 58.7701 20.9384 79.5444 34.4262 97.7501L34.0871 98.0104L34.0758 97.9991Z" fill="#92DEED"/>
<path d="M49.3612 98.9382C44.104 98.9382 39.0164 98.6554 34.2227 98.0783H34.0758L34.0419 97.9199C28.4116 77.9716 27.7445 55.5227 32.2216 36.3213L32.2668 36.1289L32.459 36.1515C57.0266 39.0934 83.5727 64.6765 91.6224 93.1902L91.6789 93.4052L91.4641 93.4618C77.6371 97.06 62.9395 98.9382 49.3725 98.9382H49.3612ZM34.4149 97.671C51.4528 99.685 72.1086 98.0217 91.1363 93.0997C83.0752 64.9028 56.8909 39.6252 32.5947 36.6041C28.1967 55.6472 28.8638 77.8924 34.4149 97.671Z" fill="#92DEED"/>
<path d="M52.6852 98.7458C49.6213 87.8948 39.5365 78.1526 30.1979 77.0437L30.2431 76.6138C39.74 77.7453 49.9831 87.6232 53.0922 98.6327L52.6739 98.7458H52.6852Z" fill="#92DEED"/>
<path d="M72.1425 97.1166C66.3539 76.6252 47.3036 58.2384 29.6665 56.1338L29.7117 55.7039C47.5071 57.8311 66.727 76.3537 72.5495 97.0035L72.1312 97.1166H72.1425Z" fill="#92DEED"/>
<path d="M34.4602 97.9198L34.0418 97.818C37.8519 81.6376 46.0938 62.7416 56.6535 45.9841L57.0153 46.2104C46.4782 62.9339 38.2589 81.7847 34.4602 97.9198Z" fill="#92DEED"/>
<path d="M66.0034 140C64.5449 140 63.0413 139.91 61.515 139.729L61.4358 139.706C49.6665 133.132 39.6834 117.902 34.0418 97.9311L33.9514 97.6256L34.2679 97.6596C51.3963 99.7076 72.199 98.033 91.3397 93.0544L91.5432 92.9978L91.5998 93.2015C95.9412 108.601 94.1888 122.405 86.7722 131.084C81.7976 136.911 74.528 140 65.9921 140H66.0034ZM61.6054 139.31C71.905 140.521 80.7349 137.511 86.4556 130.801C93.7366 122.27 95.489 108.692 91.2493 93.5183C72.2329 98.4403 51.5998 100.115 34.5393 98.1235C40.1583 117.812 50.0057 132.804 61.6054 139.31Z" fill="#92DEED"/>
<path d="M43.1317 116.782C42.5664 116.782 41.9785 116.748 41.3906 116.68L41.4358 116.25C45.3477 116.714 48.7168 115.571 50.8875 113.025C53.6687 109.766 54.3245 104.562 52.6851 98.7457L53.1035 98.6326C54.788 104.596 54.0984 109.948 51.2267 113.308C49.2934 115.582 46.4556 116.782 43.143 116.782H43.1317Z" fill="#92DEED"/>
<path d="M53.974 130.926C52.9113 130.926 51.8259 130.858 50.7179 130.733L50.7632 130.303C58.2137 131.197 64.5789 129.013 68.7168 124.182C73.9966 118.004 75.2403 108.137 72.1312 97.1278L72.5495 97.0146C75.7038 108.171 74.4262 118.174 69.0447 124.465C65.4268 128.697 60.1583 130.937 53.9627 130.937L53.974 130.926Z" fill="#92DEED"/>
<path d="M92.6738 118.773C73.1487 117.45 51.8146 109.891 34.1323 98.0444L34.3697 97.6936C51.9842 109.495 73.2504 117.02 92.7077 118.343L92.6738 118.773Z" fill="#92DEED"/>
<path d="M81.9107 135.361C65.0537 129.885 47.6201 116.261 34.0757 97.999L34.4149 97.7388C47.9028 115.933 65.2572 129.5 82.035 134.942L81.8994 135.35L81.9107 135.361Z" fill="#92DEED"/>
<path d="M66.0034 140C64.8728 140 63.7309 139.944 62.5551 139.842L62.589 139.864L61.4698 139.729C52.606 138.665 43.1996 134.626 34.2566 128.04C32.1085 126.377 29.4065 124.171 27.5297 122.541C26.6931 121.828 25.7094 120.855 24.8502 119.995C24.5789 119.724 24.3188 119.475 24.0814 119.237C22.0351 117.257 18.9373 113.67 17.2414 111.498C15.9751 109.88 14.3245 107.538 12.1764 104.335C11.5659 103.419 10.8762 102.231 10.2657 101.167L9.8926 100.534C9.20295 99.3568 8.32109 97.6935 7.69927 96.4036C6.87395 94.7064 5.8225 92.3642 5.07632 90.5877C4.01357 87.974 3.0978 85.3149 2.36292 82.7012C-1.98982 67.2902 -0.237416 53.486 7.1792 44.8074C13.013 37.9845 21.9898 34.9068 32.4477 36.1628C57.0153 39.1046 83.5613 64.6878 91.6111 93.2015C95.9525 108.601 94.2001 122.405 86.7835 131.084C81.8089 136.911 74.5393 140 66.0034 140ZM61.6054 139.31C71.905 140.521 80.7349 137.511 86.4556 130.801C93.7705 122.236 95.5003 108.567 91.1928 93.3146C83.1883 64.9593 56.8118 39.512 32.3912 36.5927C22.069 35.3594 13.2278 38.3805 7.49577 45.0903C0.192205 53.6557 -1.53759 67.3128 2.76993 82.5767C3.50481 85.1792 4.40928 87.8156 5.47202 90.418C6.21821 92.1944 7.26965 94.5253 8.08367 96.2112C8.70549 97.4898 9.57604 99.1418 10.2657 100.319L10.6388 100.952C11.2493 102.005 11.9276 103.193 12.5382 104.098C14.675 107.289 16.3256 109.619 17.5806 111.238C19.2651 113.41 22.3516 116.963 24.3867 118.943C24.6354 119.181 24.8954 119.441 25.1668 119.701C26.026 120.55 27.0096 121.511 27.8349 122.224C29.7117 123.842 32.4025 126.049 34.5393 127.701C43.0752 133.981 52.0294 137.93 60.5201 139.163C49.1577 132.317 39.5478 117.37 34.0644 97.9311L34.4828 97.818C40.0791 117.653 49.983 132.781 61.6394 139.31H61.6054Z" fill="#92DEED"/>
<path d="M62.589 139.853L61.515 139.728C36.9474 136.787 10.4014 111.203 2.35162 82.6897L2.75863 82.554C5.70945 90.1123 17.1962 95.6114 34.268 97.6594H34.4149L34.4489 97.8178C40.0565 117.676 49.9604 132.804 61.6394 139.332L62.589 139.864V139.853ZM3.44829 84.8509C12.052 111.871 37.0379 135.734 60.4975 139.163C49.1577 132.328 39.5704 117.438 34.0758 98.0668C18.5529 96.1885 7.62014 91.4362 3.44829 84.8509Z" fill="#92DEED"/>
<path d="M16.0203 109.732C15.9299 109.732 15.8847 109.699 15.8508 109.676C15.8168 109.642 15.6925 109.529 15.7716 109.314L16.1786 109.461C16.1786 109.461 16.1786 109.404 16.1447 109.359C16.1108 109.314 16.0656 109.303 16.0543 109.303C16.3595 109.303 18.5868 108.431 34.121 97.6934L34.3584 98.0441C19.1408 108.567 16.5856 109.732 16.009 109.732H16.0203Z" fill="#92DEED"/>
<path d="M34.268 128.04C34.1097 127.927 33.9627 127.814 33.8044 127.701C32.753 126.92 31.4415 125.924 30.4805 125.098C30.3222 124.963 30.1527 124.815 29.9718 124.668C29.6665 124.408 29.3612 124.148 29.0673 123.888C28.4002 123.311 27.688 122.7 27.1227 122.19C26.3652 121.5 25.4494 120.606 24.6467 119.814L23.991 119.169C21.2663 116.522 18.3381 112.878 17.2414 111.509C15.6021 109.472 14.9463 108.488 12.1764 104.347C11.5433 103.396 10.8423 102.186 10.2205 101.111L9.79087 100.364C8.82987 98.7118 7.73321 96.4715 6.87396 94.7176C6.67046 94.2877 6.45565 93.8125 6.22953 93.3033C5.82252 92.3981 5.43813 91.4929 5.06503 90.5877L5.46074 90.418C5.63032 90.814 5.82252 91.2553 6.01472 91.7079C6.21823 92.1831 6.42173 92.6696 6.62524 93.1336C11.7581 104.528 19.7852 115.254 29.3273 123.548C29.4969 123.695 29.6665 123.842 29.8248 123.978C29.9718 124.103 30.1074 124.227 30.2431 124.34C31.4867 125.393 32.753 126.388 34.0306 127.361C34.1888 127.486 34.3471 127.599 34.4941 127.701L34.2454 128.052L34.268 128.04Z" fill="#92DEED"/>
<path d="M2.40815 82.8707L2.36292 82.6896C-1.98982 67.29 -0.237416 53.4857 7.1792 44.8071C13.013 37.9842 21.9898 34.9066 32.4477 36.1625H32.5382L32.5947 36.2417C38.1006 43.223 44.2058 47.0701 50.1979 47.6246C53.1713 44.4677 57.5693 43.0646 62.6682 43.6756L63.1882 43.7322L62.7812 44.049C58.8807 47.0928 54.6637 48.4053 50.3674 48.0659C50.277 48.1564 50.1979 48.2582 50.1074 48.36C46.4217 52.671 45.5625 59.5505 47.7332 67.2447L47.7784 67.3805L47.6654 67.471C38.225 74.8257 21.3793 80.5737 2.61165 82.8367L2.43076 82.8594L2.40815 82.8707ZM27.9706 36.3209C19.5591 36.3209 12.4025 39.3646 7.51838 45.09C0.214817 53.6215 -1.52628 67.2108 2.7134 82.3954C21.2663 80.1325 37.8858 74.475 47.2583 67.2334C45.0989 59.46 46.0034 52.49 49.7569 48.0885C49.7795 48.0659 49.7908 48.0432 49.8135 48.0206C43.844 47.353 37.7841 43.4833 32.3007 36.5699C30.8197 36.4001 29.3725 36.3096 27.9593 36.3096L27.9706 36.3209ZM50.7518 47.6698C54.641 47.8961 58.4963 46.7081 62.069 44.049C57.4788 43.6191 53.5105 44.8977 50.7518 47.6698Z" fill="#92DEED"/>
<path d="M19.8417 79.4423C16.6196 68.0255 17.9197 57.7854 23.4257 51.3472C27.7558 46.2781 34.4149 44.0038 42.182 44.9316L42.1368 45.3616C34.5167 44.4451 27.9932 46.6742 23.7535 51.6301C18.3493 57.9552 17.0718 68.0594 20.26 79.3291L19.8417 79.4423Z" fill="#92DEED"/>
<path d="M35.3307 74.2259C32.8547 65.4455 33.8609 57.559 38.0893 52.603C41.4245 48.6994 46.5461 46.9456 52.5382 47.6584L52.4929 48.0884C46.6591 47.3982 41.662 49.0954 38.4285 52.8859C34.2906 57.7287 33.3183 65.4682 35.749 74.1128L35.3307 74.2259Z" fill="#92DEED"/>
<path d="M38.6659 50.6683C30.7179 50.6683 21.4245 47.3643 11.8711 40.9035L12.1085 40.5527C27.8463 51.1888 42.8152 53.2029 52.1538 45.9273L52.4138 46.2668C48.6264 49.22 43.9457 50.6683 38.6659 50.6683Z" fill="#92DEED"/>
<path d="M91.7581 93.7331L91.2832 93.4276C87.3036 90.9044 85.1216 87.8041 84.952 84.4549C84.8841 82.95 85.2233 81.4111 85.9469 79.861C79.3669 66.6564 69.1464 54.9228 57.7049 46.9684C49.3725 50.2271 40.1809 46.5611 32.2442 36.5021L31.9164 36.0947L32.4364 36.1513C40.9158 37.1696 49.6326 40.881 57.7502 46.4819C59.3669 45.8256 60.9497 44.9091 62.4873 43.7097L62.5551 43.6531H62.6456C75.1272 45.158 88.6037 58.1476 92.6852 72.6194L92.7304 72.7552L92.6173 72.8457C89.6665 75.154 87.5749 77.5188 86.4217 79.8497C88.5585 84.1607 90.3109 88.6301 91.5998 93.1787L91.7468 93.7218L91.7581 93.7331ZM86.2069 80.3588C85.6077 81.7393 85.3251 83.1084 85.3929 84.4435C85.5399 87.4986 87.4845 90.3726 91.0458 92.76C89.8135 88.5396 88.1854 84.387 86.2182 80.3702L86.2069 80.3588ZM58.1911 46.776C69.5195 54.7192 79.6269 66.3283 86.2069 79.3858C87.394 77.1115 89.4291 74.8258 92.2555 72.6081C88.1741 58.3739 74.9576 45.6332 62.7021 44.117C61.2437 45.2485 59.7287 46.1424 58.1911 46.7874V46.776ZM32.9226 36.6378C40.5653 46.1085 49.3273 49.6048 57.2866 46.6629C49.4743 41.3109 41.0967 37.7241 32.9226 36.6378Z" fill="#92DEED"/>
<path d="M85.6077 87.3063C79.6835 66.3283 60.1809 47.5115 42.1255 45.3504L42.1707 44.9204C60.3844 47.0929 80.0452 66.0568 86.0147 87.1818L85.5964 87.2949L85.6077 87.3063Z" fill="#92DEED"/>
<path d="M85.8338 80.2684C81.2889 64.1785 66.3313 49.7406 52.493 48.0887L52.5382 47.6587C66.5348 49.3333 81.662 63.907 86.2408 80.1439L85.8225 80.2571L85.8338 80.2684Z" fill="#92DEED"/>
<path d="M64.251 53.8593C63.3805 53.8593 62.5664 53.7235 61.8203 53.452C59.2651 52.5242 57.4675 49.9896 56.6309 46.1425L57.0492 46.052C57.8519 49.752 59.5591 52.1734 61.9672 53.056C65.2007 54.2327 69.6665 52.7052 74.8672 48.6544L75.1272 48.9939C70.9893 52.2187 67.281 53.8706 64.251 53.8706V53.8593Z" fill="#92DEED"/>
<path d="M66.0034 140C64.5449 140 63.0413 139.909 61.515 139.728L61.3228 139.706V139.513C61.8315 119.61 67.7897 103.317 77.2414 95.9508L77.3092 95.8943H77.3997C82.329 96.494 86.58 95.1588 89.463 92.1377C86.6478 89.8747 85.0989 87.2609 84.9633 84.4662C84.7711 80.5738 87.3375 76.4438 92.3686 72.5175L92.6173 72.3252L92.7077 72.6307C94.9237 80.4607 94.0192 87.4872 90.2431 91.9114C90.1978 91.968 90.1413 92.0245 90.0961 92.0811C90.537 92.4206 91.0232 92.7487 91.5206 93.0768L91.5885 93.1221L91.6111 93.2013C95.9525 108.601 94.2001 122.405 86.7835 131.084C81.8089 136.911 74.5393 140 66.0034 140ZM61.7637 139.321C71.9955 140.487 80.7688 137.477 86.4669 130.801C93.7705 122.247 95.5003 108.612 91.2267 93.3937C90.7292 93.0768 90.2544 92.7374 89.8021 92.3979C86.84 95.5209 82.4873 96.9126 77.4449 96.3355C68.1515 103.634 62.3064 119.678 61.7637 139.321ZM92.3799 73.0607C87.6314 76.8286 85.2233 80.7662 85.3929 84.4435C85.5172 87.1138 87.0209 89.6258 89.7569 91.8096C89.8134 91.753 89.87 91.6851 89.9152 91.6285C93.5444 87.3741 94.4375 80.6191 92.3799 73.0494V73.0607Z" fill="#92DEED"/>
<path d="M67.0096 121.896C65.9243 121.896 64.8163 121.828 63.6744 121.692L63.7196 121.262C71.3398 122.167 77.8632 119.938 82.1029 114.994C87.5071 108.669 88.7846 98.5758 85.5964 87.2948L86.0147 87.1816C89.2369 98.5984 87.9367 108.838 82.4308 115.277C78.7338 119.61 73.3409 121.896 67.0096 121.896Z" fill="#92DEED"/>
<path d="M71.5998 106.87C70.7631 106.87 69.9039 106.813 69.0334 106.711L69.0786 106.281C74.9124 106.983 79.9096 105.274 83.143 101.484C87.281 96.641 88.2533 88.9016 85.8225 80.2569L86.2408 80.1438C88.7168 88.9242 87.7106 96.8107 83.4822 101.767C80.6331 105.105 76.4726 106.87 71.5998 106.87Z" fill="#92DEED"/>
<path d="M92.5042 118.683C83.3126 105.218 83.4935 92.7487 93.013 85.3374L93.273 85.6769C83.9683 92.9297 83.8101 105.184 92.8547 118.445L92.5042 118.683Z" fill="#92DEED"/>
<path d="M47.394 67.6747L47.3036 67.3692C45.0989 59.5392 45.9921 52.5127 49.7682 48.0885C49.8134 48.0319 49.87 47.9754 49.9152 47.9188C49.4743 47.5793 48.9881 47.2512 48.4907 46.9231L48.4228 46.8778L48.4002 46.7986C44.0588 31.3989 45.8112 17.5947 53.2278 8.91611C59.0503 2.09319 68.0271 -0.973162 78.485 0.282798L78.6772 0.305428V0.497783C78.1684 20.4008 72.2103 36.6943 62.7586 44.0604L62.6908 44.117H62.6003C57.671 43.5173 53.42 44.8524 50.537 47.8735C53.3522 50.1365 54.9011 52.7503 55.0367 55.5451C55.2289 59.4374 52.6625 63.5674 47.6314 67.4937L47.3827 67.686L47.394 67.6747ZM50.2544 48.179C50.1978 48.2356 50.1526 48.3035 50.0961 48.3601C46.4669 52.6145 45.5738 59.3695 47.6314 66.9392C52.3799 63.1713 54.788 59.2337 54.6184 55.5564C54.4941 52.886 52.9904 50.3741 50.2544 48.1903V48.179ZM48.7846 46.6062C49.2821 46.9231 49.7569 47.2625 50.2092 47.602C53.1713 44.479 57.524 43.0873 62.5664 43.6644C71.8598 36.3662 77.7049 20.3216 78.2476 0.678822C68.0158 -0.497934 59.2425 2.52316 53.5444 9.19899C46.2408 17.7531 44.511 31.3876 48.7846 46.6062Z" fill="#92DEED"/>
<path d="M52.4138 46.2668L52.1537 45.9273C61.4924 38.6518 63.6065 23.32 57.8293 4.9106L58.2363 4.78613C64.0701 23.3653 61.8994 38.8781 52.4138 46.2668Z" fill="#92DEED"/>
<path d="M92.3799 73.0607L92.2894 72.7552C88.2419 58.4305 74.935 45.588 62.6117 44.1057L62.0916 44.0491L62.4986 43.7323C71.8598 36.4342 77.7501 20.2764 78.2476 0.497868V0.260254L78.485 0.282884C103.053 3.22477 129.599 28.8079 137.648 57.3216L137.716 57.5592L137.467 57.5932C118.768 59.8448 102.001 65.5589 92.6286 72.8683L92.3799 73.0607ZM63.1656 43.7436C75.4098 45.5088 88.4907 58.1702 92.6173 72.3252C102.058 65.095 118.666 59.4488 137.174 57.1858C129.113 29.0116 102.951 3.77921 78.6772 0.735482C78.1345 20.2538 72.3573 36.2645 63.1656 43.7436Z" fill="#92DEED"/>
<path d="M75.1159 48.9826L74.8559 48.6432C84.2397 41.3337 94.6411 26.9298 102.679 10.1157L103.064 10.2968C95.0028 27.1561 84.5563 41.6166 75.1159 48.9713V48.9826Z" fill="#92DEED"/>
<path d="M85.8338 59.313L85.5738 58.9736C94.9802 51.6415 109.316 40.9715 123.912 30.4373L124.161 30.788C109.576 41.3109 95.2516 51.9809 85.8338 59.313Z" fill="#92DEED"/>
<path d="M112.041 104.12C110.582 104.12 109.079 104.03 107.552 103.849H107.462L107.405 103.769C101.899 96.7995 95.7942 92.9411 89.8022 92.3866C86.8287 95.5435 82.4308 96.9352 77.3318 96.3356L76.8118 96.279L77.2188 95.9622C81.1193 92.9184 85.3477 91.6059 89.6326 91.9454C89.723 91.8548 89.8022 91.753 89.8926 91.6512C93.5783 87.3402 94.4375 80.4607 92.2668 72.7665L92.2216 72.6307L92.3347 72.5402C101.775 65.1855 118.621 59.4375 137.388 57.1745L137.569 57.1519L137.614 57.3329C141.956 72.7326 140.204 86.5368 132.787 95.2154C127.812 101.043 120.543 104.132 112.007 104.132L112.041 104.12ZM107.688 103.43C117.965 104.641 126.772 101.62 132.493 94.9212C139.785 86.3897 141.526 72.8004 137.275 57.6158C118.722 59.8788 102.103 65.5362 92.7304 72.7778C94.8898 80.5512 93.9853 87.5212 90.2318 91.9227C90.2092 91.9454 90.1979 91.968 90.1752 91.9793C96.1447 92.6469 102.205 96.5166 107.688 103.43ZM77.931 95.9622C82.5212 96.3808 86.4896 95.1135 89.2482 92.3414C85.3477 92.1038 81.5037 93.3031 77.931 95.9622Z" fill="#92DEED"/>
<path d="M93.273 85.677L93.013 85.3375C102.476 77.9602 119.582 76.8853 138.79 82.4748L138.666 82.8935C119.593 77.3492 102.634 78.3901 93.273 85.6883V85.677Z" fill="#92DEED"/>
<path d="M86.6705 95.7585L86.2634 95.6227C86.433 94.9891 86.4896 93.982 86.4217 92.6356C86.3539 91.2891 86.1617 90.3047 85.913 88.9582C85.7547 88.0983 85.4946 87.0573 85.2685 86.3331C84.7598 84.6811 84.0814 82.7463 83.5614 81.3885C83.3918 80.9472 81.8089 77.2812 80.6218 75.2445C79.6495 73.5698 78.225 71.2729 77.0831 69.5304C76.5291 68.6818 75.7264 67.6182 75.0141 66.7017C74.0984 65.5023 73.3861 64.631 72.8547 64.0313C70.9441 61.8928 69.4065 60.2521 68.2759 59.1433C67.6314 58.5096 66.7044 57.6384 65.9582 57.0161L65.2911 56.4616C64.7372 55.9977 64.1379 55.4885 63.6292 55.0925C63.1317 54.6965 62.476 54.2213 61.8994 53.7913L61.3454 53.384C61.3454 53.384 58.519 51.302 54.9011 49.6274C54.0079 49.2201 51.7242 48.2243 49.7117 47.9867C49.3725 47.9415 49.2256 47.9415 49.0786 47.9528L49.0447 47.5228C49.3273 47.4889 50.3448 47.3078 51.5885 46.3347C54.4828 44.0831 58.3041 43.1666 62.6343 43.6757C75.1159 45.1693 88.5924 58.1589 92.6738 72.6307C95.2403 81.7053 93.6235 89.5692 88.3663 93.6652C87.9254 94.0386 87.6654 94.2536 87.3375 94.6609C86.8853 95.2041 86.7157 95.5774 86.6478 95.7585H86.6705ZM50.2431 47.6246C52.1877 47.9528 54.2567 48.8467 55.0933 49.2314C58.7451 50.9286 61.5828 53.0219 61.6054 53.0445L62.1594 53.4519C62.736 53.8818 63.3918 54.357 63.9005 54.7531C64.4093 55.1491 65.0085 55.6583 65.5738 56.1335L66.2295 56.6879C66.987 57.3216 67.9254 58.2041 68.5698 58.8378C69.7004 59.9466 71.2493 61.5986 73.1713 63.7372C73.714 64.3482 74.4262 65.2307 75.3533 66.4414C76.0656 67.3693 76.8683 68.4329 77.4336 69.3041C78.5868 71.0579 80.0113 73.3662 80.9836 75.0408C82.1933 77.1341 83.7762 80.7775 83.9458 81.2527C84.4658 82.6105 85.1442 84.5567 85.6642 86.22C85.8903 86.9554 86.1504 88.0191 86.3087 88.8677C86.5687 90.2594 86.7609 91.2551 86.8287 92.6356C86.874 93.405 86.874 94.0839 86.8287 94.6383C86.8853 94.5591 86.9418 94.4799 87.0096 94.4007C87.3714 93.9594 87.6541 93.7218 88.0837 93.3597C93.2165 89.3542 94.7767 81.66 92.2555 72.7552C88.208 58.4304 74.9011 45.588 62.5777 44.1057C58.3607 43.5965 54.6411 44.4904 51.8372 46.6742C51.2267 47.1381 50.6727 47.4436 50.2092 47.6246H50.2431Z" fill="#92DEED"/>
<path d="M2.40815 82.8707L2.36292 82.6896C-1.98982 67.29 -0.237416 53.4857 7.1792 44.8071C13.013 37.9842 21.9898 34.9066 32.4477 36.1625H32.5382L32.5947 36.2417C38.1006 43.223 44.2058 47.0701 50.1979 47.6246C53.1713 44.4677 57.5693 43.0646 62.6682 43.6756L63.1882 43.7322L62.7812 44.049C58.8807 47.0928 54.6637 48.4053 50.3674 48.0659C50.277 48.1564 50.1979 48.2582 50.1074 48.36C46.4217 52.671 45.5625 59.5505 47.7332 67.2447L47.7784 67.3805L47.6654 67.471C38.225 74.8257 21.3793 80.5737 2.61165 82.8367L2.43076 82.8594L2.40815 82.8707ZM27.9706 36.3209C19.5591 36.3209 12.4025 39.3646 7.51838 45.09C0.214817 53.6215 -1.52628 67.2108 2.7134 82.3954C21.2663 80.1325 37.8858 74.475 47.2583 67.2334C45.0989 59.46 46.0034 52.49 49.7569 48.0885C49.7795 48.0659 49.7908 48.0432 49.8135 48.0206C43.844 47.353 37.7841 43.4833 32.3007 36.5699C30.8197 36.4001 29.3725 36.3096 27.9593 36.3096L27.9706 36.3209ZM50.7518 47.6698C54.641 47.8961 58.4963 46.7081 62.069 44.049C57.4788 43.6191 53.5105 44.8977 50.7518 47.6698Z" fill="#92DEED"/>
<path d="M19.8417 79.4423C16.6196 68.0255 17.9197 57.7854 23.4257 51.3472C27.7558 46.2781 34.4149 44.0038 42.182 44.9316L42.1368 45.3616C34.5167 44.4451 27.9932 46.6742 23.7535 51.6301C18.3493 57.9552 17.0718 68.0594 20.26 79.3291L19.8417 79.4423Z" fill="#92DEED"/>
<path d="M35.3307 74.2259C32.8547 65.4455 33.8609 57.559 38.0893 52.603C41.4245 48.6994 46.5461 46.9456 52.5382 47.6584L52.4929 48.0884C46.6591 47.3982 41.662 49.0954 38.4285 52.8859C34.2906 57.7287 33.3183 65.4682 35.749 74.1128L35.3307 74.2259Z" fill="#92DEED"/>
<path d="M38.6659 50.6683C30.7179 50.6683 21.4245 47.3643 11.8711 40.9035L12.1085 40.5527C27.8463 51.1888 42.8152 53.2029 52.1538 45.9273L52.4138 46.2668C48.6264 49.22 43.9457 50.6683 38.6659 50.6683Z" fill="#92DEED"/>
<path d="M91.7581 93.7331L91.2832 93.4276C87.3036 90.9044 85.1216 87.8041 84.952 84.4549C84.8841 82.95 85.2233 81.4111 85.9469 79.861C79.3669 66.6564 69.1464 54.9228 57.7049 46.9684C49.3725 50.2271 40.1809 46.5611 32.2442 36.5021L31.9164 36.0947L32.4364 36.1513C40.9158 37.1696 49.6326 40.881 57.7502 46.4819C59.3669 45.8256 60.9497 44.9091 62.4873 43.7097L62.5551 43.6531H62.6456C75.1272 45.158 88.6037 58.1476 92.6852 72.6194L92.7304 72.7552L92.6173 72.8457C89.6665 75.154 87.5749 77.5188 86.4217 79.8497C88.5585 84.1607 90.3109 88.6301 91.5998 93.1787L91.7468 93.7218L91.7581 93.7331ZM86.2069 80.3588C85.6077 81.7393 85.3251 83.1084 85.3929 84.4435C85.5399 87.4986 87.4845 90.3726 91.0458 92.76C89.8135 88.5396 88.1854 84.387 86.2182 80.3702L86.2069 80.3588ZM58.1911 46.776C69.5195 54.7192 79.6269 66.3283 86.2069 79.3858C87.394 77.1115 89.4291 74.8258 92.2555 72.6081C88.1741 58.3739 74.9576 45.6332 62.7021 44.117C61.2437 45.2485 59.7287 46.1424 58.1911 46.7874V46.776ZM32.9226 36.6378C40.5653 46.1085 49.3273 49.6048 57.2866 46.6629C49.4743 41.3109 41.0967 37.7241 32.9226 36.6378Z" fill="#92DEED"/>
<path d="M85.6077 87.3063C79.6835 66.3283 60.1809 47.5115 42.1255 45.3504L42.1707 44.9204C60.3844 47.0929 80.0452 66.0568 86.0147 87.1818L85.5964 87.2949L85.6077 87.3063Z" fill="#92DEED"/>
<path d="M85.8338 80.2684C81.2889 64.1785 66.3313 49.7406 52.493 48.0887L52.5382 47.6587C66.5348 49.3333 81.662 63.907 86.2408 80.1439L85.8225 80.2571L85.8338 80.2684Z" fill="#92DEED"/>
<path d="M64.251 53.8593C63.3805 53.8593 62.5664 53.7235 61.8203 53.452C59.2651 52.5242 57.4675 49.9896 56.6309 46.1425L57.0492 46.052C57.8519 49.752 59.5591 52.1734 61.9672 53.056C65.2007 54.2327 69.6665 52.7052 74.8672 48.6544L75.1272 48.9939C70.9893 52.2187 67.281 53.8706 64.251 53.8706V53.8593Z" fill="#92DEED"/>
<path d="M66.0034 140C64.5449 140 63.0413 139.909 61.515 139.728L61.3228 139.706V139.513C61.8315 119.61 67.7897 103.317 77.2414 95.9508L77.3092 95.8943H77.3997C82.329 96.494 86.58 95.1588 89.463 92.1377C86.6478 89.8747 85.0989 87.2609 84.9633 84.4662C84.7711 80.5738 87.3375 76.4438 92.3686 72.5175L92.6173 72.3252L92.7077 72.6307C94.9237 80.4607 94.0192 87.4872 90.2431 91.9114C90.1978 91.968 90.1413 92.0245 90.0961 92.0811C90.537 92.4206 91.0232 92.7487 91.5206 93.0768L91.5885 93.1221L91.6111 93.2013C95.9525 108.601 94.2001 122.405 86.7835 131.084C81.8089 136.911 74.5393 140 66.0034 140ZM61.7637 139.321C71.9955 140.487 80.7688 137.477 86.4669 130.801C93.7705 122.247 95.5003 108.612 91.2267 93.3937C90.7292 93.0768 90.2544 92.7374 89.8021 92.3979C86.84 95.5209 82.4873 96.9126 77.4449 96.3355C68.1515 103.634 62.3064 119.678 61.7637 139.321ZM92.3799 73.0607C87.6314 76.8286 85.2233 80.7662 85.3929 84.4435C85.5172 87.1138 87.0209 89.6258 89.7569 91.8096C89.8134 91.753 89.87 91.6851 89.9152 91.6285C93.5444 87.3741 94.4375 80.6191 92.3799 73.0494V73.0607Z" fill="#92DEED"/>
<path d="M67.0096 121.896C65.9243 121.896 64.8163 121.828 63.6744 121.692L63.7196 121.262C71.3398 122.167 77.8632 119.938 82.1029 114.994C87.5071 108.669 88.7846 98.5758 85.5964 87.2948L86.0147 87.1816C89.2369 98.5984 87.9367 108.838 82.4308 115.277C78.7338 119.61 73.3409 121.896 67.0096 121.896Z" fill="#92DEED"/>
<path d="M71.5998 106.87C70.7631 106.87 69.9039 106.813 69.0334 106.711L69.0786 106.281C74.9124 106.983 79.9096 105.274 83.143 101.484C87.281 96.641 88.2533 88.9016 85.8225 80.2569L86.2408 80.1438C88.7168 88.9242 87.7106 96.8107 83.4822 101.767C80.6331 105.105 76.4726 106.87 71.5998 106.87Z" fill="#92DEED"/>
<path d="M92.5042 118.683C83.3126 105.218 83.4935 92.7487 93.013 85.3374L93.273 85.6769C83.9683 92.9297 83.8101 105.184 92.8547 118.445L92.5042 118.683Z" fill="#92DEED"/>
<path d="M47.394 67.6747L47.3036 67.3692C45.0989 59.5392 45.9921 52.5127 49.7682 48.0885C49.8134 48.0319 49.87 47.9754 49.9152 47.9188C49.4743 47.5793 48.9881 47.2512 48.4907 46.9231L48.4228 46.8778L48.4002 46.7986C44.0588 31.3989 45.8112 17.5947 53.2278 8.91611C59.0503 2.09319 68.0271 -0.973162 78.485 0.282798L78.6772 0.305428V0.497783C78.1684 20.4008 72.2103 36.6943 62.7586 44.0604L62.6908 44.117H62.6003C57.671 43.5173 53.42 44.8524 50.537 47.8735C53.3522 50.1365 54.9011 52.7503 55.0367 55.5451C55.2289 59.4374 52.6625 63.5674 47.6314 67.4937L47.3827 67.686L47.394 67.6747ZM50.2544 48.179C50.1978 48.2356 50.1526 48.3035 50.0961 48.3601C46.4669 52.6145 45.5738 59.3695 47.6314 66.9392C52.3799 63.1713 54.788 59.2337 54.6184 55.5564C54.4941 52.886 52.9904 50.3741 50.2544 48.1903V48.179ZM48.7846 46.6062C49.2821 46.9231 49.7569 47.2625 50.2092 47.602C53.1713 44.479 57.524 43.0873 62.5664 43.6644C71.8598 36.3662 77.7049 20.3216 78.2476 0.678822C68.0158 -0.497934 59.2425 2.52316 53.5444 9.19899C46.2408 17.7531 44.511 31.3876 48.7846 46.6062Z" fill="#92DEED"/>
<path d="M52.4138 46.2668L52.1537 45.9273C61.4924 38.6518 63.6065 23.32 57.8293 4.9106L58.2363 4.78613C64.0701 23.3653 61.8994 38.8781 52.4138 46.2668Z" fill="#92DEED"/>
<path d="M92.3799 73.0607L92.2894 72.7552C88.2419 58.4305 74.935 45.588 62.6117 44.1057L62.0916 44.0491L62.4986 43.7323C71.8598 36.4342 77.7501 20.2764 78.2476 0.497868V0.260254L78.485 0.282884C103.053 3.22477 129.599 28.8079 137.648 57.3216L137.716 57.5592L137.467 57.5932C118.768 59.8448 102.001 65.5589 92.6286 72.8683L92.3799 73.0607ZM63.1656 43.7436C75.4098 45.5088 88.4907 58.1702 92.6173 72.3252C102.058 65.095 118.666 59.4488 137.174 57.1858C129.113 29.0116 102.951 3.77921 78.6772 0.735482C78.1345 20.2538 72.3573 36.2645 63.1656 43.7436Z" fill="#92DEED"/>
<path d="M75.1159 48.9826L74.8559 48.6432C84.2397 41.3337 94.6411 26.9298 102.679 10.1157L103.064 10.2968C95.0028 27.1561 84.5563 41.6166 75.1159 48.9713V48.9826Z" fill="#92DEED"/>
<path d="M85.8338 59.313L85.5738 58.9736C94.9802 51.6415 109.316 40.9715 123.912 30.4373L124.161 30.788C109.576 41.3109 95.2516 51.9809 85.8338 59.313Z" fill="#92DEED"/>
<path d="M112.041 104.12C110.582 104.12 109.079 104.03 107.552 103.849H107.462L107.405 103.769C101.899 96.7995 95.7942 92.9411 89.8022 92.3866C86.8287 95.5435 82.4308 96.9352 77.3318 96.3356L76.8118 96.279L77.2188 95.9622C81.1193 92.9184 85.3477 91.6059 89.6326 91.9454C89.723 91.8548 89.8022 91.753 89.8926 91.6512C93.5783 87.3402 94.4375 80.4607 92.2668 72.7665L92.2216 72.6307L92.3347 72.5402C101.775 65.1855 118.621 59.4375 137.388 57.1745L137.569 57.1519L137.614 57.3329C141.956 72.7326 140.204 86.5368 132.787 95.2154C127.812 101.043 120.543 104.132 112.007 104.132L112.041 104.12ZM107.688 103.43C117.965 104.641 126.772 101.62 132.493 94.9212C139.785 86.3897 141.526 72.8004 137.275 57.6158C118.722 59.8788 102.103 65.5362 92.7304 72.7778C94.8898 80.5512 93.9853 87.5212 90.2318 91.9227C90.2092 91.9454 90.1979 91.968 90.1752 91.9793C96.1447 92.6469 102.205 96.5166 107.688 103.43ZM77.931 95.9622C82.5212 96.3808 86.4896 95.1135 89.2482 92.3414C85.3477 92.1038 81.5037 93.3031 77.931 95.9622Z" fill="#92DEED"/>
<path d="M93.273 85.677L93.013 85.3375C102.476 77.9602 119.582 76.8853 138.79 82.4748L138.666 82.8935C119.593 77.3492 102.634 78.3901 93.273 85.6883V85.677Z" fill="#92DEED"/>
<path d="M82.9509 134.716L82.8604 134.433C77.0831 117.268 78.4398 102.717 86.4104 94.8646C86.5122 93.9142 86.433 92.7601 86.3878 92.0698C86.32 91.1081 86.2748 90.8478 85.7886 88.3812C85.6416 87.6457 85.3929 86.6839 85.1668 85.9598C84.6806 84.4662 83.9684 82.4634 83.4031 80.9925C83.0526 80.076 82.5099 78.8992 82.069 78.0393C81.9333 77.7677 81.775 77.4735 81.6168 77.1567C81.2663 76.4778 80.9158 75.7763 80.5992 75.1992C80.2714 74.5995 79.8418 73.8867 79.4347 73.1965C79.2538 72.891 79.073 72.5855 78.9147 72.3139C78.5642 71.7255 76.6874 68.8176 75.0255 66.7017C74.0419 65.4457 71.7468 62.5039 68.2533 59.1207C65.2233 56.1788 62.9282 54.5268 61.0741 53.1916C60.9497 53.1011 57.9537 50.9513 54.3019 49.3559C52.7191 48.6657 51.1023 48.1791 49.9152 48.0094C40.3505 53.78 25.9582 51.517 10.7858 41.707L10.537 41.5486L10.7745 41.3675C16.4387 36.9434 23.9345 35.1556 32.4477 36.1739C57.0153 39.1158 83.5614 64.699 91.6111 93.2127C96.6422 111.056 93.4992 126.501 83.1883 134.546L82.9509 134.727V134.716ZM86.2861 95.5888C78.8581 103.373 77.6597 117.438 83.1657 133.992C93.1487 126.015 96.1447 110.83 91.2041 93.3032C83.1996 64.9479 56.8231 39.5005 32.4025 36.5813C24.1266 35.5969 16.8344 37.2941 11.2832 41.5033C25.9356 50.906 39.8191 53.203 49.1804 47.9302C49.1464 47.9302 49.1238 47.9302 49.0899 47.9302L49.0673 47.5002C49.316 47.4776 49.7796 47.3644 50.3109 47.1155C50.8536 46.8666 51.125 46.6742 51.6111 46.3122L51.8711 46.6516L51.7581 46.4932L51.8824 46.6516C51.4302 47.0024 50.9667 47.3418 50.4805 47.6473C51.645 47.8736 53.0922 48.3262 54.4941 48.9485C58.1798 50.5553 61.2097 52.739 61.3454 52.8296C63.1996 54.176 65.5173 55.8393 68.5698 58.7925C72.086 62.1984 74.3923 65.1629 75.3759 66.4188C77.0379 68.5574 78.9486 71.4879 79.2878 72.0763C79.446 72.3479 79.6269 72.6421 79.8078 72.9589C80.2148 73.6491 80.6445 74.3619 80.9836 74.9729C81.3002 75.55 81.662 76.2515 82.0125 76.9417C82.1707 77.2472 82.3177 77.5527 82.4647 77.813C82.9056 78.6729 83.4483 79.8723 83.8101 80.8002C84.3867 82.2711 85.099 84.2852 85.5851 85.79C85.8225 86.5142 86.0826 87.5099 86.2182 88.2454C86.7044 90.746 86.7609 91.0176 86.8288 92.002C86.8627 92.5903 86.9305 93.5182 86.8853 94.3894C87.2923 94.016 87.7219 93.6539 88.1515 93.3145L88.4229 93.6539C88.0724 93.9368 87.1453 94.6949 86.6931 95.7585L86.2861 95.6227C86.2861 95.6227 86.2861 95.6001 86.2861 95.5888Z" fill="#92DEED"/>
<path d="M61.7524 139.751L61.515 139.729C36.9475 136.787 10.4014 111.203 2.35165 82.6898L2.28381 82.4522L2.53254 82.4182C21.2324 80.1666 37.9989 74.4525 47.3714 67.143L47.6202 66.9507L47.7106 67.2562C51.7581 81.5809 65.0651 94.4234 77.3884 95.9057L77.9085 95.9622L77.5015 96.2791C68.1402 103.577 62.2499 119.735 61.7524 139.514V139.751ZM2.8378 82.8143C10.8989 110.989 37.0492 136.221 61.3341 139.276C61.8768 119.758 67.6541 103.747 76.8457 96.2677C64.6015 94.5026 51.5207 81.8412 47.394 67.6862C37.9537 74.9164 21.3454 80.5626 2.8378 82.8256V82.8143Z" fill="#92DEED"/>
<path d="M63.6744 121.704C45.4607 119.531 25.7999 100.568 19.8304 79.4425L20.2488 79.3293C26.173 100.307 45.6756 119.124 63.731 121.285L63.6857 121.715L63.6744 121.704Z" fill="#92DEED"/>
<path d="M69.0334 106.711C55.0368 105.037 39.9096 90.4632 35.3307 74.2262L35.749 74.113C40.294 90.2029 55.2516 104.641 69.0899 106.293L69.0447 106.723L69.0334 106.711Z" fill="#92DEED"/>
<path d="M37.3206 129.884L36.9362 129.703C44.9972 112.833 55.4438 98.3835 64.8842 91.0288L65.1442 91.3683C55.7604 98.6777 45.359 113.082 37.3206 129.896V129.884Z" fill="#92DEED"/>
<path d="M2.40818 82.8707L2.36295 82.6896C-1.98979 67.29 -0.237385 53.4857 7.17923 44.8071C13.013 37.9842 21.9899 34.9066 32.4477 36.1625H32.5382L32.5947 36.2417C38.1007 43.223 44.2058 47.0701 50.1979 47.6246C53.1713 44.4677 57.5693 43.0646 62.6682 43.6756L63.1883 43.7322L62.7813 44.049C58.8808 47.0928 54.6637 48.4053 50.3675 48.0659C50.277 48.1564 50.1979 48.2582 50.1074 48.36C46.4217 52.671 45.5625 59.5505 47.7332 67.2447L47.7784 67.3805L47.6654 67.471C38.225 74.8257 21.3793 80.5737 2.61168 82.8367L2.43079 82.8594L2.40818 82.8707ZM27.9706 36.3209C19.5591 36.3209 12.4025 39.3646 7.51841 45.09C0.214848 53.6215 -1.52625 67.2108 2.71343 82.3954C21.2663 80.1325 37.8858 74.475 47.2584 67.2334C45.099 59.46 46.0034 52.49 49.757 48.0885C49.7796 48.0659 49.7909 48.0432 49.8135 48.0206C43.844 47.353 37.7841 43.4833 32.3008 36.5699C30.8197 36.4001 29.3726 36.3096 27.9593 36.3096L27.9706 36.3209ZM50.7519 47.6698C54.6411 47.8961 58.4964 46.7081 62.069 44.049C57.4788 43.6191 53.5105 44.8977 50.7519 47.6698Z" fill="#92DEED"/>
<path d="M19.8417 79.4423C16.6196 68.0255 17.9198 57.7854 23.4257 51.3472C27.7558 46.2781 34.415 44.0038 42.1821 44.9316L42.1368 45.3616C34.5167 44.4451 27.9932 46.6742 23.7536 51.6301C18.3494 57.9552 17.0718 68.0594 20.2601 79.3291L19.8417 79.4423Z" fill="#92DEED"/>
<path d="M35.3307 74.2259C32.8547 65.4455 33.861 57.559 38.0893 52.603C41.4246 48.6994 46.5461 46.9456 52.5382 47.6584L52.493 48.0884C46.6592 47.3982 41.662 49.0954 38.4285 52.8859C34.2906 57.7287 33.3183 65.4682 35.749 74.1128L35.3307 74.2259Z" fill="#92DEED"/>
<path d="M24.1041 61.078C17.1397 61.078 9.36126 59.9126 1.22107 57.5364L1.34543 57.1178C20.4071 62.6621 37.3771 61.6211 46.7383 54.323L46.9983 54.6625C41.5489 58.9056 33.567 61.0667 24.1041 61.0667V61.078Z" fill="#92DEED"/>
<path d="M108.072 103.905L107.552 103.849C99.0729 102.83 90.3562 99.1192 82.2386 93.5183C80.6218 94.1745 79.039 95.0911 77.5014 96.2904L77.4336 96.347H77.3432C64.8615 94.8421 51.385 81.8526 47.3036 67.3807L47.2584 67.2449L47.3714 67.1544C50.3222 64.8462 52.4138 62.4813 53.5557 60.1505C51.4189 55.8395 49.6665 51.3701 48.3776 46.8214L48.2307 46.2783L48.7055 46.5838C52.6852 49.1071 54.8672 52.2074 55.0368 55.5566C55.1046 57.0615 54.7654 58.6003 54.0419 60.1505C60.6218 73.355 70.8423 85.0886 82.2838 93.043C90.6162 89.7957 99.8078 93.4504 107.745 103.509L108.072 103.917V103.905ZM82.7247 93.3259C90.537 98.6779 98.9147 102.265 107.089 103.351C99.446 93.8917 90.6953 90.384 82.7247 93.3259ZM47.7671 67.392C51.8485 81.6263 65.065 94.3669 77.3205 95.8831C78.779 94.7516 80.294 93.8577 81.8316 93.2128C70.5031 85.281 60.3957 73.6605 53.8157 60.6031C52.6286 62.8774 50.5936 65.163 47.7671 67.3807V67.392ZM48.9768 47.2401C50.2092 51.4606 51.8372 55.6132 53.8157 59.63C54.4149 58.2495 54.6976 56.8804 54.6298 55.5453C54.4828 52.4902 52.5382 49.6162 48.9768 47.2288V47.2401Z" fill="#92DEED"/>
<path d="M82.9622 93.9482C82.1594 90.2482 80.4636 87.8268 78.0441 86.9442C74.8107 85.7675 70.3562 87.295 65.1442 91.3458L64.8842 91.0063C70.2092 86.8537 74.822 85.3149 78.1911 86.5369C80.7462 87.4647 82.5438 89.9993 83.3805 93.8464L82.9622 93.9369V93.9482Z" fill="#92DEED"/>
<path d="M54.4376 81.0265L54.1775 80.6871C60.9836 75.3804 63.0526 73.5021 63.6744 72.8345C63.3918 72.959 62.9282 73.2079 62.1368 73.6831L61.922 73.3097C63.9231 72.1104 64.1606 72.1556 64.3188 72.3819C64.4997 72.6422 64.7485 73.0042 54.4602 81.0265H54.4376Z" fill="#92DEED"/>
<path d="M47.394 67.6747L47.3036 67.3692C45.099 59.5392 45.9921 52.5127 49.7683 48.0885C49.8135 48.0319 49.87 47.9754 49.9152 47.9188C49.4743 47.5793 48.9882 47.2512 48.4907 46.9231L48.4229 46.8778L48.4003 46.7986C44.0588 31.3989 45.8112 17.5947 53.2278 8.91611C59.0503 2.09319 68.0272 -0.973162 78.485 0.282798L78.6772 0.305428V0.497783C78.1685 20.4008 72.2103 36.6943 62.7586 44.0604L62.6908 44.117H62.6004C57.671 43.5173 53.42 44.8524 50.5371 47.8735C53.3522 50.1365 54.9011 52.7503 55.0368 55.5451C55.229 59.4374 52.6625 63.5674 47.6315 67.4937L47.3827 67.686L47.394 67.6747ZM50.2544 48.179C50.1979 48.2356 50.1527 48.3035 50.0961 48.3601C46.467 52.6145 45.5738 59.3695 47.6315 66.9392C52.3799 63.1713 54.788 59.2337 54.6185 55.5564C54.4941 52.886 52.9904 50.3741 50.2544 48.1903V48.179ZM48.7847 46.6062C49.2821 46.9231 49.7569 47.2625 50.2092 47.602C53.1713 44.479 57.524 43.0873 62.5664 43.6644C71.8598 36.3662 77.7049 20.3216 78.2476 0.678822C68.0159 -0.497934 59.2425 2.52316 53.5444 9.19899C46.2408 17.7531 44.511 31.3876 48.7847 46.6062Z" fill="#92DEED"/>
<path d="M46.9983 54.6738L46.7383 54.3344C56.043 47.0815 56.2013 34.8274 47.1566 21.5662L47.5071 21.3286C56.6987 34.7934 56.5178 47.2625 46.9983 54.6738Z" fill="#92DEED"/>
<path d="M61.7524 139.751L61.515 139.728C36.9475 136.787 10.4014 111.203 2.35164 82.6897C-2.69076 64.846 0.463564 49.4011 10.7745 41.3561L10.8988 41.2656L11.0232 41.3448C27.1001 51.7433 42.2612 53.5989 51.5998 46.3234L51.8598 46.6629C46.7496 50.6457 45.1894 58.3399 47.7106 67.2448C51.7581 81.5695 65.065 94.412 77.3884 95.8942L77.9085 95.9508L77.5014 96.2676C68.1402 103.566 62.2499 119.724 61.7524 139.502V139.74V139.751ZM10.9214 41.7974C0.847962 49.7405 -2.20461 64.9705 2.76995 82.5765C10.7519 110.841 36.9814 136.221 61.3341 139.276C61.8768 119.757 67.6541 103.747 76.8457 96.2676C64.5111 94.4912 51.3398 81.66 47.3036 67.3805C45.0763 59.4827 46.0034 52.5127 49.7343 48.1338C40.1922 53.746 25.9469 51.483 10.9214 41.8087V41.7974Z" fill="#92DEED"/>
<path d="M66.0034 140C64.5449 140 63.0413 139.909 61.515 139.728L61.3228 139.706V139.513C61.8315 119.61 67.7897 103.317 77.2414 95.9508L77.3092 95.8943H77.3997C82.329 96.494 86.58 95.1588 89.463 92.1377C86.6478 89.8747 85.0989 87.2609 84.9633 84.4662C84.7711 80.5738 87.3375 76.4438 92.3686 72.5175L92.6173 72.3252L92.7077 72.6307C94.9237 80.4607 94.0192 87.4872 90.2431 91.9114C90.1978 91.968 90.1413 92.0245 90.0961 92.0811C90.537 92.4206 91.0232 92.7487 91.5206 93.0768L91.5885 93.1221L91.6111 93.2013C95.9525 108.601 94.2001 122.405 86.7835 131.084C81.8089 136.911 74.5393 140 66.0034 140ZM61.7637 139.321C71.9955 140.487 80.7688 137.477 86.4669 130.801C93.7705 122.247 95.5003 108.612 91.2267 93.3937C90.7292 93.0768 90.2544 92.7374 89.8021 92.3979C86.84 95.5209 82.4873 96.9126 77.4449 96.3355C68.1515 103.634 62.3064 119.678 61.7637 139.321ZM92.3799 73.0607C87.6314 76.8286 85.2233 80.7662 85.3929 84.4435C85.5172 87.1138 87.0209 89.6258 89.7569 91.8096C89.8134 91.753 89.87 91.6851 89.9152 91.6285C93.5444 87.3741 94.4375 80.6191 92.3799 73.0494V73.0607Z" fill="#92DEED"/>
<path d="M67.0096 121.896C65.9243 121.896 64.8163 121.828 63.6744 121.692L63.7196 121.262C71.3398 122.167 77.8632 119.938 82.1029 114.994C87.5071 108.669 88.7846 98.5758 85.5964 87.2948L86.0147 87.1816C89.2369 98.5984 87.9367 108.838 82.4308 115.277C78.7338 119.61 73.3409 121.896 67.0096 121.896Z" fill="#92DEED"/>
<path d="M71.5998 106.87C70.7631 106.87 69.9039 106.813 69.0334 106.711L69.0786 106.281C74.9124 106.983 79.9096 105.274 83.143 101.484C87.281 96.641 88.2533 88.9016 85.8225 80.2569L86.2408 80.1438C88.7168 88.9242 87.7106 96.8107 83.4822 101.767C80.6331 105.105 76.4726 106.87 71.5998 106.87Z" fill="#92DEED"/>
<path d="M81.7637 135.214C75.9186 116.635 78.1006 101.122 87.5862 93.7332L87.8462 94.0726C78.5076 101.348 76.3935 116.68 82.1707 135.089L81.7637 135.214Z" fill="#92DEED"/>
<path d="M112.041 104.12C110.582 104.12 109.079 104.03 107.552 103.849H107.462L107.405 103.769C101.899 96.7995 95.7942 92.9411 89.8022 92.3866C86.8287 95.5435 82.4308 96.9352 77.3318 96.3356L76.8118 96.279L77.2188 95.9622C81.1193 92.9184 85.3477 91.6059 89.6326 91.9454C89.723 91.8548 89.8022 91.753 89.8926 91.6512C93.5783 87.3402 94.4375 80.4607 92.2668 72.7665L92.2216 72.6307L92.3347 72.5402C101.775 65.1855 118.621 59.4375 137.388 57.1745L137.569 57.1519L137.614 57.3329C141.956 72.7326 140.204 86.5368 132.787 95.2154C127.812 101.043 120.543 104.132 112.007 104.132L112.041 104.12ZM107.688 103.43C117.965 104.641 126.772 101.62 132.493 94.9212C139.785 86.3897 141.526 72.8004 137.275 57.6158C118.722 59.8788 102.103 65.5362 92.7304 72.7778C94.8898 80.5512 93.9853 87.5212 90.2318 91.9227C90.2092 91.9454 90.1979 91.968 90.1752 91.9793C96.1447 92.6469 102.205 96.5166 107.688 103.43ZM77.931 95.9622C82.5212 96.3808 86.4896 95.1135 89.2482 92.3414C85.3477 92.1038 81.5037 93.3031 77.931 95.9622Z" fill="#92DEED"/>
<path d="M127.891 99.4472C112.154 88.8112 97.1849 86.7971 87.8463 94.0726L87.5862 93.7332C97.0718 86.3332 112.233 88.3359 128.129 99.0851L127.891 99.4359V99.4472Z" fill="#92DEED"/>
<path d="M66.0486 140C64.5789 140 63.0639 139.91 61.515 139.728L61.3228 139.706V139.514C61.8315 119.611 67.7897 103.317 77.2414 95.9509L77.3092 95.8943H77.3997C81.628 96.4035 85.3363 95.5209 88.1402 93.3372L88.4002 93.6766C79.0616 100.952 77.1396 116.137 83.2561 134.297L83.3013 134.444L83.1769 134.535C78.5415 138.156 72.6738 140.011 66.0373 140.011L66.0486 140ZM61.7637 139.321C70.017 140.26 77.2866 138.529 82.8038 134.275C77.1283 117.302 78.4285 102.898 86.2295 95.0231C83.7196 96.2564 80.7236 96.709 77.4449 96.3243C68.1515 103.622 62.3064 119.667 61.7637 139.31V139.321Z" fill="#92DEED"/>
<path d="M61.7524 139.751L61.515 139.729C36.9474 136.787 10.4014 111.203 2.35162 82.6898L2.28378 82.4522L2.53251 82.4182C21.2323 80.1666 37.9989 74.4525 47.3714 67.143L47.6201 66.9507L47.7106 67.2562C51.7581 81.5809 65.065 94.4234 77.3884 95.9057L77.9084 95.9622L77.5014 96.2791C68.1402 103.577 62.2499 119.735 61.7524 139.514V139.751ZM2.83777 82.8143C10.8988 110.989 37.0492 136.221 61.3341 139.276C61.8768 119.758 67.6541 103.747 76.8457 96.2677C64.6015 94.5026 51.5206 81.8412 47.394 67.6862C37.9537 74.9164 21.3454 80.5626 2.83777 82.8256V82.8143Z" fill="#92DEED"/>
<path d="M37.3205 129.884L36.9361 129.703C44.9972 112.833 55.4438 98.3835 64.8841 91.0288L65.1442 91.3683C55.7603 98.6777 45.359 113.082 37.3205 129.896V129.884Z" fill="#92DEED"/>
<path d="M2.40815 82.8707L2.36292 82.6896C-1.98982 67.29 -0.237416 53.4857 7.1792 44.8071C13.013 37.9842 21.9898 34.9066 32.4477 36.1625H32.5382L32.5947 36.2417C38.1006 43.223 44.2058 47.0701 50.1979 47.6246C53.1713 44.4677 57.5693 43.0646 62.6682 43.6756L63.1882 43.7322L62.7812 44.049C58.8807 47.0928 54.6637 48.4053 50.3674 48.0659C50.277 48.1564 50.1979 48.2582 50.1074 48.36C46.4217 52.671 45.5625 59.5505 47.7332 67.2447L47.7784 67.3805L47.6654 67.471C38.225 74.8257 21.3793 80.5737 2.61165 82.8367L2.43076 82.8594L2.40815 82.8707ZM27.9706 36.3209C19.5591 36.3209 12.4025 39.3646 7.51838 45.09C0.214817 53.6215 -1.52628 67.2108 2.7134 82.3954C21.2663 80.1325 37.8858 74.475 47.2583 67.2334C45.0989 59.46 46.0034 52.49 49.7569 48.0885C49.7795 48.0659 49.7908 48.0432 49.8135 48.0206C43.844 47.353 37.7841 43.4833 32.3007 36.5699C30.8197 36.4001 29.3725 36.3096 27.9593 36.3096L27.9706 36.3209ZM50.7518 47.6698C54.641 47.8961 58.4963 46.7081 62.069 44.049C57.4788 43.6191 53.5105 44.8977 50.7518 47.6698Z" fill="#92DEED"/>
<path d="M24.104 61.078C17.1396 61.078 9.36123 59.9126 1.22104 57.5364L1.3454 57.1178C20.407 62.6621 37.3771 61.6211 46.7383 54.323L46.9983 54.6625C41.5489 58.9056 33.567 61.0667 24.104 61.0667V61.078Z" fill="#92DEED"/>
<path d="M108.072 103.905L107.552 103.849C99.0729 102.83 90.3561 99.1192 82.2385 93.5183C80.6218 94.1745 79.039 95.0911 77.5014 96.2904L77.4336 96.347H77.3431C64.8615 94.8421 51.385 81.8526 47.3036 67.3807L47.2583 67.2449L47.3714 67.1544C50.3222 64.8462 52.4138 62.4813 53.5557 60.1505C51.4189 55.8395 49.6665 51.3701 48.3776 46.8214L48.2306 46.2783L48.7055 46.5838C52.6851 49.1071 54.8672 52.2074 55.0367 55.5566C55.1046 57.0615 54.7654 58.6003 54.0418 60.1505C60.6218 73.355 70.8423 85.0886 82.2838 93.043C90.6162 89.7957 99.8078 93.4504 107.744 103.509L108.072 103.917V103.905ZM82.7247 93.3259C90.537 98.6779 98.9146 102.265 107.089 103.351C99.446 93.8917 90.6953 90.384 82.7247 93.3259ZM47.7671 67.392C51.8485 81.6263 65.065 94.3669 77.3205 95.8831C78.779 94.7516 80.2939 93.8577 81.8315 93.2128C70.5031 85.281 60.3957 73.6605 53.8157 60.6031C52.6286 62.8774 50.5935 65.163 47.7671 67.3807V67.392ZM48.9768 47.2401C50.2092 51.4606 51.8372 55.6132 53.8157 59.63C54.4149 58.2495 54.6976 56.8804 54.6297 55.5453C54.4828 52.4902 52.5382 49.6162 48.9768 47.2288V47.2401Z" fill="#92DEED"/>
<path d="M87.4618 92.3416C73.4652 90.667 58.338 76.0933 53.7592 59.8563L54.1775 59.7432C58.7224 75.833 73.68 90.2709 87.5184 91.9229L87.4732 92.3529L87.4618 92.3416Z" fill="#92DEED"/>
<path d="M97.8293 95.0798C79.6156 92.9074 59.9548 73.9435 53.9853 52.8185L54.4036 52.7053C60.3279 73.6833 79.8304 92.5 97.8858 94.6612L97.8406 95.0912L97.8293 95.0798Z" fill="#92DEED"/>
<path d="M82.9621 93.9482C82.1594 90.2482 80.4635 87.8268 78.0441 86.9442C74.8106 85.7675 70.3561 87.295 65.1442 91.3458L64.8841 91.0063C70.2092 86.8537 74.8219 85.3149 78.1911 86.5369C80.7462 87.4647 82.5438 89.9993 83.3804 93.8464L82.9621 93.9369V93.9482Z" fill="#92DEED"/>
<path d="M47.394 67.6747L47.3036 67.3692C45.0989 59.5392 45.9921 52.5127 49.7682 48.0885C49.8134 48.0319 49.87 47.9754 49.9152 47.9188C49.4743 47.5793 48.9881 47.2512 48.4907 46.9231L48.4228 46.8778L48.4002 46.7986C44.0588 31.3989 45.8112 17.5947 53.2278 8.91611C59.0503 2.09319 68.0271 -0.973162 78.485 0.282798L78.6772 0.305428V0.497783C78.1684 20.4008 72.2103 36.6943 62.7586 44.0604L62.6908 44.117H62.6003C57.671 43.5173 53.42 44.8524 50.537 47.8735C53.3522 50.1365 54.9011 52.7503 55.0367 55.5451C55.2289 59.4374 52.6625 63.5674 47.6314 67.4937L47.3827 67.686L47.394 67.6747ZM50.2544 48.179C50.1978 48.2356 50.1526 48.3035 50.0961 48.3601C46.4669 52.6145 45.5738 59.3695 47.6314 66.9392C52.3799 63.1713 54.788 59.2337 54.6184 55.5564C54.4941 52.886 52.9904 50.3741 50.2544 48.1903V48.179ZM48.7846 46.6062C49.2821 46.9231 49.7569 47.2625 50.2092 47.602C53.1713 44.479 57.524 43.0873 62.5664 43.6644C71.8598 36.3662 77.7049 20.3216 78.2476 0.678822C68.0158 -0.497934 59.2425 2.52316 53.5444 9.19899C46.2408 17.7531 44.511 31.3876 48.7846 46.6062Z" fill="#92DEED"/>
<path d="M53.7592 59.8561C51.2832 51.0756 52.2894 43.1891 56.5178 38.2332C59.853 34.3295 64.9859 32.5757 70.9667 33.2885L70.9214 33.7185C65.0989 33.017 60.0904 34.7255 56.8457 38.516C52.7077 43.3588 51.7354 51.0983 54.1775 59.7429L53.7592 59.8561Z" fill="#92DEED"/>
<path d="M53.9853 52.8182C50.7631 41.4014 52.0633 31.1614 57.5692 24.7232C61.8994 19.6541 68.5585 17.3684 76.3256 18.3076L76.2804 18.7376C68.6603 17.821 62.1368 20.0501 57.8971 25.006C52.4929 31.3311 51.2154 41.4354 54.4036 52.7051L53.9853 52.8182Z" fill="#92DEED"/>
<path d="M46.9983 54.6738L46.7383 54.3344C56.043 47.0815 56.2013 34.8274 47.1566 21.5662L47.5071 21.3286C56.6987 34.7934 56.5178 47.2625 46.9983 54.6738Z" fill="#92DEED"/>
<path d="M77.4336 96.3355H77.3431C64.8615 94.8306 51.385 81.8411 47.3036 67.3692C44.7371 58.2946 46.3539 50.4307 51.6111 46.3347C51.9503 46.0519 52.8773 45.3051 53.3409 44.2415L53.7479 44.3886C53.4652 45.4069 53.5783 47.0589 53.6348 47.9528C53.7027 48.9145 53.7366 49.1295 54.234 51.6528C54.3697 52.3769 54.6297 53.3387 54.8558 54.0742C55.342 55.5677 56.0543 57.5705 56.6196 59.0414C56.97 59.9353 57.5014 61.1234 57.9536 61.9946C58.0893 62.2662 58.2476 62.5604 58.4059 62.8659C58.7564 63.5448 59.1068 64.2463 59.4234 64.8234C59.7513 65.4231 60.1809 66.1359 60.5992 66.8261C60.7801 67.1316 60.961 67.4371 61.1193 67.7087C61.1306 67.7313 62.6003 70.1867 65.0085 73.3209C65.9356 74.5316 66.6478 75.4142 67.1905 76.0252C68.5359 77.5301 70.3787 79.4989 71.7694 80.9019C73.3409 82.486 76.4613 85.0093 76.7778 85.2469C78.0215 86.1747 79.7513 87.3628 81.0627 88.2227C81.7185 88.6527 82.6343 89.1732 83.3465 89.5352C85.0989 90.4178 85.6868 90.712 87.0322 91.1985C87.5975 91.4022 88.3211 91.6285 88.8298 91.7643C89.2595 91.8774 89.8587 91.9793 90.2883 92.0472L90.2318 92.4771C85.7547 91.9453 81.4697 93.2352 77.5127 96.3129L77.4449 96.3695L77.4336 96.3355ZM53.1487 45.3843C52.6738 46.0179 52.1198 46.4705 51.8711 46.6742C46.7496 50.657 45.2007 58.3625 47.7106 67.2561C51.7467 81.5469 65.0085 94.3667 77.3092 95.8942C80.6218 93.3371 84.1492 92.0019 87.8462 91.9114C87.5184 91.8096 87.1792 91.6964 86.8739 91.5833C85.5059 91.0854 84.9067 90.7912 83.143 89.8973C82.4194 89.5352 81.4811 89.0034 80.814 88.5621C79.4912 87.7022 77.7614 86.4915 76.5065 85.5637C76.1899 85.3261 73.0243 82.7802 71.4415 81.1848C70.0396 79.7704 68.1967 77.8016 66.84 76.2854C66.286 75.6631 65.5625 74.7692 64.6354 73.5585C62.2272 70.4243 60.7349 67.9237 60.7236 67.901C60.5653 67.6295 60.3844 67.3353 60.2035 67.0298C59.7852 66.3396 59.3669 65.6154 59.0277 65.0044C58.7111 64.4273 58.3493 63.7258 57.9989 63.0356C57.8406 62.7301 57.6936 62.4246 57.5466 62.1644C57.0944 61.2931 56.5517 60.0824 56.2012 59.1772C55.6246 57.7063 54.9124 55.6922 54.4262 54.1873C54.1888 53.4518 53.9288 52.4561 53.7931 51.732C53.2956 49.1748 53.2504 48.9598 53.1826 47.9754C53.1374 47.3304 53.0695 46.3121 53.1374 45.3843H53.1487Z" fill="#92DEED"/>
<path d="M61.7524 139.751L61.515 139.729C36.9474 136.787 10.4014 111.203 2.35162 82.6898L2.28378 82.4522L2.53251 82.4182C21.2323 80.1666 37.9989 74.4525 47.3714 67.143L47.6201 66.9507L47.7106 67.2562C51.7581 81.5809 65.065 94.4234 77.3884 95.9057L77.9084 95.9622L77.5014 96.2791C68.1402 103.577 62.2499 119.735 61.7524 139.514V139.751ZM2.83777 82.8143C10.8988 110.989 37.0492 136.221 61.3341 139.276C61.8768 119.758 67.6541 103.747 76.8457 96.2677C64.6015 94.5026 51.5206 81.8412 47.394 67.6862C37.9537 74.9164 21.3454 80.5626 2.83777 82.8256V82.8143Z" fill="#92DEED"/>
<path d="M37.3205 129.884L36.9361 129.703C44.9972 112.833 55.4438 98.3835 64.8841 91.0288L65.1442 91.3683C55.7603 98.6777 45.359 113.082 37.3205 129.896V129.884Z" fill="#92DEED"/>
<path d="M16.0995 109.563L15.8508 109.212C30.424 98.7004 44.7484 88.0304 54.1775 80.687L54.4375 81.0265C45.0085 88.3699 30.684 99.0399 16.0995 109.563Z" fill="#92DEED"/>
<path d="M2.40815 82.8707L2.36292 82.6896C-1.98982 67.29 -0.237416 53.4857 7.1792 44.8071C13.013 37.9842 21.9898 34.9066 32.4477 36.1625H32.5382L32.5947 36.2417C38.1006 43.223 44.2058 47.0701 50.1979 47.6246C53.1713 44.4677 57.5693 43.0646 62.6682 43.6756L63.1882 43.7322L62.7812 44.049C58.8807 47.0928 54.6637 48.4053 50.3674 48.0659C50.277 48.1564 50.1979 48.2582 50.1074 48.36C46.4217 52.671 45.5625 59.5505 47.7332 67.2447L47.7784 67.3805L47.6654 67.471C38.225 74.8257 21.3793 80.5737 2.61165 82.8367L2.43076 82.8594L2.40815 82.8707ZM27.9706 36.3209C19.5591 36.3209 12.4025 39.3646 7.51838 45.09C0.214817 53.6215 -1.52628 67.2108 2.7134 82.3954C21.2663 80.1325 37.8858 74.475 47.2583 67.2334C45.0989 59.46 46.0034 52.49 49.7569 48.0885C49.7795 48.0659 49.7908 48.0432 49.8135 48.0206C43.844 47.353 37.7841 43.4833 32.3007 36.5699C30.8197 36.4001 29.3725 36.3096 27.9593 36.3096L27.9706 36.3209ZM50.7518 47.6698C54.641 47.8961 58.4963 46.7081 62.069 44.049C57.4788 43.6191 53.5105 44.8977 50.7518 47.6698Z" fill="#92DEED"/>
<path d="M24.104 61.078C17.1396 61.078 9.36123 59.9126 1.22104 57.5364L1.3454 57.1178C20.407 62.6621 37.3771 61.6211 46.7383 54.323L46.9983 54.6625C41.5489 58.9056 33.567 61.0667 24.104 61.0667V61.078Z" fill="#92DEED"/>
<path d="M108.072 103.905L107.552 103.849C99.0729 102.83 90.3561 99.1192 82.2385 93.5183C80.6218 94.1745 79.039 95.0911 77.5014 96.2904L77.4336 96.347H77.3431C64.8615 94.8421 51.385 81.8526 47.3036 67.3807L47.2583 67.2449L47.3714 67.1544C50.3222 64.8462 52.4138 62.4813 53.5557 60.1505C51.4189 55.8395 49.6665 51.3701 48.3776 46.8214L48.2306 46.2783L48.7055 46.5838C52.6851 49.1071 54.8672 52.2074 55.0367 55.5566C55.1046 57.0615 54.7654 58.6003 54.0418 60.1505C60.6218 73.355 70.8423 85.0886 82.2838 93.043C90.6162 89.7957 99.8078 93.4504 107.744 103.509L108.072 103.917V103.905ZM82.7247 93.3259C90.537 98.6779 98.9146 102.265 107.089 103.351C99.446 93.8917 90.6953 90.384 82.7247 93.3259ZM47.7671 67.392C51.8485 81.6263 65.065 94.3669 77.3205 95.8831C78.779 94.7516 80.2939 93.8577 81.8315 93.2128C70.5031 85.281 60.3957 73.6605 53.8157 60.6031C52.6286 62.8774 50.5935 65.163 47.7671 67.3807V67.392ZM48.9768 47.2401C50.2092 51.4606 51.8372 55.6132 53.8157 59.63C54.4149 58.2495 54.6976 56.8804 54.6297 55.5453C54.4828 52.4902 52.5382 49.6162 48.9768 47.2288V47.2401Z" fill="#92DEED"/>
<path d="M87.4618 92.3416C73.4652 90.667 58.338 76.0933 53.7592 59.8563L54.1775 59.7432C58.7224 75.833 73.68 90.2709 87.5184 91.9229L87.4732 92.3529L87.4618 92.3416Z" fill="#92DEED"/>
<path d="M97.8293 95.0798C79.6156 92.9074 59.9548 73.9435 53.9853 52.8185L54.4036 52.7053C60.3279 73.6833 79.8304 92.5 97.8858 94.6612L97.8406 95.0912L97.8293 95.0798Z" fill="#92DEED"/>
<path d="M82.9621 93.9482C82.1594 90.2482 80.4635 87.8268 78.0441 86.9442C74.8106 85.7675 70.3561 87.295 65.1442 91.3458L64.8841 91.0063C70.2092 86.8537 74.8219 85.3149 78.1911 86.5369C80.7462 87.4647 82.5438 89.9993 83.3804 93.8464L82.9621 93.9369V93.9482Z" fill="#92DEED"/>
<path d="M47.394 67.6747L47.3036 67.3692C45.0989 59.5392 45.9921 52.5127 49.7682 48.0885C49.8134 48.0319 49.87 47.9754 49.9152 47.9188C49.4743 47.5793 48.9881 47.2512 48.4907 46.9231L48.4228 46.8778L48.4002 46.7986C44.0588 31.3989 45.8112 17.5947 53.2278 8.91611C59.0503 2.09319 68.0271 -0.973162 78.485 0.282798L78.6772 0.305428V0.497783C78.1684 20.4008 72.2103 36.6943 62.7586 44.0604L62.6908 44.117H62.6003C57.671 43.5173 53.42 44.8524 50.537 47.8735C53.3522 50.1365 54.9011 52.7503 55.0367 55.5451C55.2289 59.4374 52.6625 63.5674 47.6314 67.4937L47.3827 67.686L47.394 67.6747ZM50.2544 48.179C50.1978 48.2356 50.1526 48.3035 50.0961 48.3601C46.4669 52.6145 45.5738 59.3695 47.6314 66.9392C52.3799 63.1713 54.788 59.2337 54.6184 55.5564C54.4941 52.886 52.9904 50.3741 50.2544 48.1903V48.179ZM48.7846 46.6062C49.2821 46.9231 49.7569 47.2625 50.2092 47.602C53.1713 44.479 57.524 43.0873 62.5664 43.6644C71.8598 36.3662 77.7049 20.3216 78.2476 0.678822C68.0158 -0.497934 59.2425 2.52316 53.5444 9.19899C46.2408 17.7531 44.511 31.3876 48.7846 46.6062Z" fill="#92DEED"/>
<path d="M53.7592 59.8561C51.2832 51.0756 52.2894 43.1891 56.5178 38.2332C59.853 34.3295 64.9859 32.5757 70.9667 33.2885L70.9214 33.7185C65.0989 33.017 60.0904 34.7255 56.8457 38.516C52.7077 43.3588 51.7354 51.0983 54.1775 59.7429L53.7592 59.8561Z" fill="#92DEED"/>
<path d="M53.9853 52.8182C50.7631 41.4014 52.0633 31.1614 57.5692 24.7232C61.8994 19.6541 68.5585 17.3684 76.3256 18.3076L76.2804 18.7376C68.6603 17.821 62.1368 20.0501 57.8971 25.006C52.4929 31.3311 51.2154 41.4354 54.4036 52.7051L53.9853 52.8182Z" fill="#92DEED"/>
<path d="M46.9983 54.6738L46.7383 54.3344C56.043 47.0815 56.2013 34.8274 47.1566 21.5662L47.5071 21.3286C56.6987 34.7934 56.5178 47.2625 46.9983 54.6738Z" fill="#92DEED"/>
<path d="M108.072 103.905L107.552 103.849C82.9847 100.907 56.4387 75.3237 48.3889 46.81C43.3465 28.9663 46.5009 13.5101 56.8118 5.47645L57.0492 5.29541L57.1396 5.57828C62.9169 22.7431 61.5602 37.2941 53.5896 45.1467C53.4087 46.9458 53.7027 50.1932 54.7202 53.6555C55.1724 55.2057 55.896 57.2198 56.4274 58.5889C56.71 59.313 57.117 60.2069 57.4788 60.999C57.6032 61.2705 57.7275 61.5308 57.8406 61.7797C58.632 63.5222 59.4347 64.8913 61.0514 67.6295C61.0628 67.6522 62.5551 70.1528 64.9633 73.287C65.879 74.4751 66.9079 75.8216 69.3725 78.4806C71.0458 80.2796 73.2504 82.3277 74.0192 82.9726C76.4161 84.9867 77.6145 85.9937 80.7575 88.0191C81.4472 88.4717 82.2838 88.9582 82.8604 89.2524C84.1945 89.9389 85.3891 90.5046 86.4443 90.9497C87.1227 91.2325 88.5359 91.753 90.2544 92.0019C96.3256 92.7261 102.363 96.6976 107.722 103.475L108.05 103.883L108.072 103.905ZM56.8457 6.00825C46.8626 13.9853 43.8553 29.17 48.8072 46.6968C56.7552 74.8485 82.8152 100.137 107.077 103.362C101.877 96.924 96.0543 93.1561 90.2205 92.4545C88.4455 92.1943 86.9983 91.6625 86.2974 91.3683C85.2271 90.9232 84.0211 90.3537 82.6795 89.6597C81.9559 89.2864 81.0741 88.7432 80.5314 88.4038C77.3771 86.3671 76.1673 85.3487 73.7592 83.3234C72.9904 82.6784 70.7632 80.6078 69.0786 78.7974C66.6026 76.1271 65.5625 74.7693 64.6467 73.5699C62.2046 70.3904 60.7123 67.8898 60.701 67.8671C59.0729 65.1176 58.2589 63.7372 57.4675 61.972C57.3544 61.7344 57.2414 61.4629 57.1057 61.1913C56.7326 60.3993 56.3256 59.4941 56.043 58.7586C55.5116 57.3782 54.788 55.3415 54.3245 53.7913C53.3748 50.5779 53.0469 47.5115 53.1374 45.5993C52.7304 45.9727 52.3007 46.3348 51.8598 46.6855L51.5885 46.3461C52.0181 45.984 52.2894 45.7577 52.6286 45.3504C53.0695 44.8073 53.2504 44.4339 53.3183 44.2528L53.7253 44.3886C53.7253 44.3886 53.7253 44.4112 53.7253 44.4225C61.1532 36.6378 62.3516 22.5734 56.8457 6.00825Z" fill="#92DEED"/>
<path d="M2.40815 82.8707L2.36292 82.6896C-1.98982 67.29 -0.237416 53.4857 7.1792 44.8071C13.013 37.9842 21.9898 34.9066 32.4477 36.1625H32.5382L32.5947 36.2417C38.1006 43.223 44.2058 47.0701 50.1979 47.6246C53.1713 44.4677 57.5693 43.0646 62.6682 43.6756L63.1882 43.7322L62.7812 44.049C58.8807 47.0928 54.6637 48.4053 50.3674 48.0659C50.277 48.1564 50.1979 48.2582 50.1074 48.36C46.4217 52.671 45.5625 59.5505 47.7332 67.2447L47.7784 67.3805L47.6654 67.471C38.225 74.8257 21.3793 80.5737 2.61165 82.8367L2.43076 82.8594L2.40815 82.8707ZM27.9706 36.3209C19.5591 36.3209 12.4025 39.3646 7.51838 45.09C0.214817 53.6215 -1.52628 67.2108 2.7134 82.3954C21.2663 80.1325 37.8858 74.475 47.2583 67.2334C45.0989 59.46 46.0034 52.49 49.7569 48.0885C49.7795 48.0659 49.7908 48.0432 49.8135 48.0206C43.844 47.353 37.7841 43.4833 32.3007 36.5699C30.8197 36.4001 29.3725 36.3096 27.9593 36.3096L27.9706 36.3209ZM50.7518 47.6698C54.641 47.8961 58.4963 46.7081 62.069 44.049C57.4788 43.6191 53.5105 44.8977 50.7518 47.6698Z" fill="#92DEED"/>
<path d="M38.6659 50.6683C30.7179 50.6683 21.4245 47.3643 11.8711 40.9035L12.1085 40.5527C27.8463 51.1888 42.8152 53.2029 52.1538 45.9273L52.4138 46.2668C48.6264 49.22 43.9457 50.6683 38.6659 50.6683Z" fill="#92DEED"/>
<path d="M91.7581 93.7331L91.2832 93.4276C87.3036 90.9044 85.1216 87.8041 84.952 84.4549C84.8841 82.95 85.2233 81.4111 85.9469 79.861C79.3669 66.6564 69.1464 54.9228 57.7049 46.9684C49.3725 50.2271 40.1809 46.5611 32.2442 36.5021L31.9164 36.0947L32.4364 36.1513C40.9158 37.1696 49.6326 40.881 57.7502 46.4819C59.3669 45.8256 60.9497 44.9091 62.4873 43.7097L62.5551 43.6531H62.6456C75.1272 45.158 88.6037 58.1476 92.6852 72.6194L92.7304 72.7552L92.6173 72.8457C89.6665 75.154 87.5749 77.5188 86.4217 79.8497C88.5585 84.1607 90.3109 88.6301 91.5998 93.1787L91.7468 93.7218L91.7581 93.7331ZM86.2069 80.3588C85.6077 81.7393 85.3251 83.1084 85.3929 84.4435C85.5399 87.4986 87.4845 90.3726 91.0458 92.76C89.8135 88.5396 88.1854 84.387 86.2182 80.3702L86.2069 80.3588ZM58.1911 46.776C69.5195 54.7192 79.6269 66.3283 86.2069 79.3858C87.394 77.1115 89.4291 74.8258 92.2555 72.6081C88.1741 58.3739 74.9576 45.6332 62.7021 44.117C61.2437 45.2485 59.7287 46.1424 58.1911 46.7874V46.776ZM32.9226 36.6378C40.5653 46.1085 49.3273 49.6048 57.2866 46.6629C49.4743 41.3109 41.0967 37.7241 32.9226 36.6378Z" fill="#92DEED"/>
<path d="M64.251 53.8593C63.3805 53.8593 62.5664 53.7235 61.8203 53.452C59.2651 52.5242 57.4675 49.9896 56.6309 46.1425L57.0492 46.052C57.8519 49.752 59.5591 52.1734 61.9672 53.056C65.2007 54.2327 69.6665 52.7052 74.8672 48.6544L75.1272 48.9939C70.9893 52.2187 67.281 53.8706 64.251 53.8706V53.8593Z" fill="#92DEED"/>
<path d="M75.9299 67.7427C75.8055 67.7427 75.749 67.6862 75.7038 67.6183C75.5229 67.358 75.2742 66.9959 85.5625 58.9736L85.8225 59.3131C79.0164 64.6198 76.9474 66.4981 76.3256 67.1657C76.6083 67.0299 77.0718 66.7923 77.8745 66.317L78.0893 66.6904C76.7213 67.5051 76.1786 67.7427 75.9186 67.7427H75.9299Z" fill="#92DEED"/>
<path d="M66.0034 140C64.5449 140 63.0413 139.909 61.515 139.728L61.3228 139.706V139.513C61.8315 119.61 67.7897 103.317 77.2414 95.9508L77.3092 95.8943H77.3997C82.329 96.494 86.58 95.1588 89.463 92.1377C86.6478 89.8747 85.0989 87.2609 84.9633 84.4662C84.7711 80.5738 87.3375 76.4438 92.3686 72.5175L92.6173 72.3252L92.7077 72.6307C94.9237 80.4607 94.0192 87.4872 90.2431 91.9114C90.1978 91.968 90.1413 92.0245 90.0961 92.0811C90.537 92.4206 91.0232 92.7487 91.5206 93.0768L91.5885 93.1221L91.6111 93.2013C95.9525 108.601 94.2001 122.405 86.7835 131.084C81.8089 136.911 74.5393 140 66.0034 140ZM61.7637 139.321C71.9955 140.487 80.7688 137.477 86.4669 130.801C93.7705 122.247 95.5003 108.612 91.2267 93.3937C90.7292 93.0768 90.2544 92.7374 89.8021 92.3979C86.84 95.5209 82.4873 96.9126 77.4449 96.3355C68.1515 103.634 62.3064 119.678 61.7637 139.321ZM92.3799 73.0607C87.6314 76.8286 85.2233 80.7662 85.3929 84.4435C85.5172 87.1138 87.0209 89.6258 89.7569 91.8096C89.8134 91.753 89.87 91.6851 89.9152 91.6285C93.5444 87.3741 94.4375 80.6191 92.3799 73.0494V73.0607Z" fill="#92DEED"/>
<path d="M92.5042 118.683C83.3126 105.218 83.4935 92.7487 93.013 85.3374L93.273 85.6769C83.9683 92.9297 83.8101 105.184 92.8547 118.445L92.5042 118.683Z" fill="#92DEED"/>
<path d="M47.394 67.6747L47.3036 67.3692C45.0989 59.5392 45.9921 52.5127 49.7682 48.0885C49.8134 48.0319 49.87 47.9754 49.9152 47.9188C49.4743 47.5793 48.9881 47.2512 48.4907 46.9231L48.4228 46.8778L48.4002 46.7986C44.0588 31.3989 45.8112 17.5947 53.2278 8.91611C59.0503 2.09319 68.0271 -0.973162 78.485 0.282798L78.6772 0.305428V0.497783C78.1684 20.4008 72.2103 36.6943 62.7586 44.0604L62.6908 44.117H62.6003C57.671 43.5173 53.42 44.8524 50.537 47.8735C53.3522 50.1365 54.9011 52.7503 55.0367 55.5451C55.2289 59.4374 52.6625 63.5674 47.6314 67.4937L47.3827 67.686L47.394 67.6747ZM50.2544 48.179C50.1978 48.2356 50.1526 48.3035 50.0961 48.3601C46.4669 52.6145 45.5738 59.3695 47.6314 66.9392C52.3799 63.1713 54.788 59.2337 54.6184 55.5564C54.4941 52.886 52.9904 50.3741 50.2544 48.1903V48.179ZM48.7846 46.6062C49.2821 46.9231 49.7569 47.2625 50.2092 47.602C53.1713 44.479 57.524 43.0873 62.5664 43.6644C71.8598 36.3662 77.7049 20.3216 78.2476 0.678822C68.0158 -0.497934 59.2425 2.52316 53.5444 9.19899C46.2408 17.7531 44.511 31.3876 48.7846 46.6062Z" fill="#92DEED"/>
<path d="M53.7592 59.8561C51.2832 51.0756 52.2894 43.1891 56.5178 38.2332C59.853 34.3295 64.9859 32.5757 70.9667 33.2885L70.9214 33.7185C65.0989 33.017 60.0904 34.7255 56.8457 38.516C52.7077 43.3588 51.7354 51.0983 54.1775 59.7429L53.7592 59.8561Z" fill="#92DEED"/>
<path d="M53.9853 52.8182C50.7631 41.4014 52.0633 31.1614 57.5692 24.7232C61.8994 19.6541 68.5585 17.3684 76.3256 18.3076L76.2804 18.7376C68.6603 17.821 62.1368 20.0501 57.8971 25.006C52.4929 31.3311 51.2154 41.4354 54.4036 52.7051L53.9853 52.8182Z" fill="#92DEED"/>
<path d="M52.4138 46.2668L52.1537 45.9273C61.4924 38.6518 63.6065 23.32 57.8293 4.9106L58.2363 4.78613C64.0701 23.3653 61.8994 38.8781 52.4138 46.2668Z" fill="#92DEED"/>
<path d="M92.3799 73.0607L92.2894 72.7552C88.2419 58.4305 74.935 45.588 62.6117 44.1057L62.0916 44.0491L62.4986 43.7323C71.8598 36.4342 77.7501 20.2764 78.2476 0.497868V0.260254L78.485 0.282884C103.053 3.22477 129.599 28.8079 137.648 57.3216L137.716 57.5592L137.467 57.5932C118.768 59.8448 102.001 65.5589 92.6286 72.8683L92.3799 73.0607ZM63.1656 43.7436C75.4098 45.5088 88.4907 58.1702 92.6173 72.3252C102.058 65.095 118.666 59.4488 137.174 57.1858C129.113 29.0116 102.951 3.77921 78.6772 0.735482C78.1345 20.2538 72.3573 36.2645 63.1656 43.7436Z" fill="#92DEED"/>
<path d="M104.262 65.8983C99.7173 49.8084 84.7597 35.3705 70.9214 33.7185L70.9666 33.2886C84.9632 34.9632 100.09 49.5369 104.669 65.7738L104.251 65.887L104.262 65.8983Z" fill="#92DEED"/>
<path d="M119.751 60.6822C113.827 39.7043 94.3245 20.8875 76.2691 18.7264L76.3143 18.2964C94.528 20.4689 114.189 39.4327 120.158 60.5578L119.74 60.6709L119.751 60.6822Z" fill="#92DEED"/>
<path d="M75.1159 48.9826L74.8559 48.6432C84.2397 41.3337 94.6411 26.9298 102.679 10.1157L103.064 10.2968C95.0028 27.1561 84.5563 41.6166 75.1159 48.9713V48.9826Z" fill="#92DEED"/>
<path d="M112.041 104.12C110.582 104.12 109.079 104.03 107.552 103.849H107.462L107.405 103.769C101.899 96.7995 95.7942 92.9411 89.8022 92.3866C86.8287 95.5435 82.4308 96.9352 77.3318 96.3356L76.8118 96.279L77.2188 95.9622C81.1193 92.9184 85.3477 91.6059 89.6326 91.9454C89.723 91.8548 89.8022 91.753 89.8926 91.6512C93.5783 87.3402 94.4375 80.4607 92.2668 72.7665L92.2216 72.6307L92.3347 72.5402C101.775 65.1855 118.621 59.4375 137.388 57.1745L137.569 57.1519L137.614 57.3329C141.956 72.7326 140.204 86.5368 132.787 95.2154C127.812 101.043 120.543 104.132 112.007 104.132L112.041 104.12ZM107.688 103.43C117.965 104.641 126.772 101.62 132.493 94.9212C139.785 86.3897 141.526 72.8004 137.275 57.6158C118.722 59.8788 102.103 65.5362 92.7304 72.7778C94.8898 80.5512 93.9853 87.5212 90.2318 91.9227C90.2092 91.9454 90.1979 91.968 90.1752 91.9793C96.1447 92.6469 102.205 96.5166 107.688 103.43ZM77.931 95.9622C82.5212 96.3808 86.4896 95.1135 89.2482 92.3414C85.3477 92.1038 81.5037 93.3031 77.931 95.9622Z" fill="#92DEED"/>
<path d="M90.0283 92.4999C89.1916 92.4999 88.3324 92.4433 87.4619 92.3414L87.5071 91.9115C93.3409 92.613 98.338 90.9044 101.572 87.1139C105.709 82.2711 106.682 74.5317 104.251 65.8871L104.669 65.7739C107.145 74.5543 106.139 82.4409 101.911 87.3968C99.0616 90.7347 94.9011 92.4999 90.0283 92.4999Z" fill="#92DEED"/>
<path d="M101.153 95.2834C100.068 95.2834 98.9599 95.2155 97.818 95.0797L97.8632 94.6498C105.483 95.5663 112.007 93.3372 116.246 88.3813C121.651 82.0562 122.928 71.9519 119.74 60.6822L120.158 60.5691C123.38 71.9859 122.08 82.2259 116.574 88.6641C112.877 92.9978 107.484 95.2834 101.153 95.2834Z" fill="#92DEED"/>
<path d="M93.273 85.677L93.013 85.3375C102.476 77.9602 119.582 76.8853 138.79 82.4748L138.666 82.8935C119.593 77.3492 102.634 78.3901 93.273 85.6883V85.677Z" fill="#92DEED"/>
<path d="M129.101 98.7344L128.977 98.6552C112.9 88.2681 97.7388 86.4011 88.4002 93.6653L88.1402 93.3259C93.2504 89.343 94.8106 81.6488 92.2894 72.7439C88.2419 58.4192 74.935 45.5767 62.6116 44.0945C58.3946 43.5853 54.675 44.4792 51.8711 46.663L51.6111 46.3235C60.9384 39.048 62.8717 23.8633 56.7552 5.70281L56.71 5.55571L56.8344 5.46519C62.4873 1.06368 69.983 -0.746718 78.485 0.282943C103.053 3.22483 129.599 28.808 137.648 57.3217C142.691 75.1653 139.536 90.6103 129.226 98.6552L129.101 98.7457V98.7344ZM102.216 88.8564C110.164 88.8564 119.469 92.0133 129.079 98.2026C139.152 90.2482 142.205 75.0182 137.23 57.4235C129.226 29.0682 102.849 3.62086 78.4398 0.701597C70.1074 -0.29412 62.7699 1.43707 57.2075 5.72544C62.883 22.6979 61.5715 37.1018 53.7931 44.977C56.3256 43.7324 59.3443 43.2911 62.6682 43.6871C75.1498 45.1807 88.6263 58.1703 92.7077 72.6421C94.935 80.5399 94.0079 87.51 90.277 91.8889C93.714 89.8635 97.7614 88.8678 102.227 88.8678L102.216 88.8564Z" fill="#92DEED"/>
<path d="M66.0034 140C64.5449 140 63.0413 139.909 61.515 139.728L61.3228 139.706V139.513C61.8315 119.61 67.7897 103.317 77.2414 95.9508L77.3092 95.8943H77.3997C82.329 96.494 86.58 95.1588 89.463 92.1377C86.6478 89.8747 85.0989 87.2609 84.9633 84.4662C84.7711 80.5738 87.3375 76.4438 92.3686 72.5175L92.6173 72.3252L92.7077 72.6307C94.9237 80.4607 94.0192 87.4872 90.2431 91.9114C90.1978 91.968 90.1413 92.0245 90.0961 92.0811C90.537 92.4206 91.0232 92.7487 91.5206 93.0768L91.5885 93.1221L91.6111 93.2013C95.9525 108.601 94.2001 122.405 86.7835 131.084C81.8089 136.911 74.5393 140 66.0034 140ZM61.7637 139.321C71.9955 140.487 80.7688 137.477 86.4669 130.801C93.7705 122.247 95.5003 108.612 91.2267 93.3937C90.7292 93.0768 90.2544 92.7374 89.8021 92.3979C86.84 95.5209 82.4873 96.9126 77.4449 96.3355C68.1515 103.634 62.3064 119.678 61.7637 139.321ZM92.3799 73.0607C87.6314 76.8286 85.2233 80.7662 85.3929 84.4435C85.5172 87.1138 87.0209 89.6258 89.7569 91.8096C89.8134 91.753 89.87 91.6851 89.9152 91.6285C93.5444 87.3741 94.4375 80.6191 92.3799 73.0494V73.0607Z" fill="#92DEED"/>
<path d="M81.7637 135.214C75.9186 116.635 78.1006 101.122 87.5862 93.7332L87.8462 94.0726C78.5076 101.348 76.3935 116.68 82.1707 135.089L81.7637 135.214Z" fill="#92DEED"/>
<path d="M112.041 104.12C110.582 104.12 109.079 104.03 107.552 103.849H107.462L107.405 103.769C101.899 96.7995 95.7942 92.9411 89.8022 92.3866C86.8287 95.5435 82.4308 96.9352 77.3318 96.3356L76.8118 96.279L77.2188 95.9622C81.1193 92.9184 85.3477 91.6059 89.6326 91.9454C89.723 91.8548 89.8022 91.753 89.8926 91.6512C93.5783 87.3402 94.4375 80.4607 92.2668 72.7665L92.2216 72.6307L92.3347 72.5402C101.775 65.1855 118.621 59.4375 137.388 57.1745L137.569 57.1519L137.614 57.3329C141.956 72.7326 140.204 86.5368 132.787 95.2154C127.812 101.043 120.543 104.132 112.007 104.132L112.041 104.12ZM107.688 103.43C117.965 104.641 126.772 101.62 132.493 94.9212C139.785 86.3897 141.526 72.8004 137.275 57.6158C118.722 59.8788 102.103 65.5362 92.7304 72.7778C94.8898 80.5512 93.9853 87.5212 90.2318 91.9227C90.2092 91.9454 90.1979 91.968 90.1752 91.9793C96.1447 92.6469 102.205 96.5166 107.688 103.43ZM77.931 95.9622C82.5212 96.3808 86.4896 95.1135 89.2482 92.3414C85.3477 92.1038 81.5037 93.3031 77.931 95.9622Z" fill="#92DEED"/>
<path d="M90.0283 92.4999C89.1916 92.4999 88.3324 92.4433 87.4619 92.3414L87.5071 91.9115C93.3409 92.613 98.338 90.9044 101.572 87.1139C105.709 82.2711 106.682 74.5317 104.251 65.8871L104.669 65.7739C107.145 74.5543 106.139 82.4409 101.911 87.3968C99.0616 90.7347 94.9011 92.4999 90.0283 92.4999Z" fill="#92DEED"/>
<path d="M127.891 99.4472C112.154 88.8112 97.1849 86.7971 87.8463 94.0726L87.5862 93.7332C97.0718 86.3332 112.233 88.3359 128.129 99.0851L127.891 99.4359V99.4472Z" fill="#92DEED"/>
<path d="M79.6608 96.4714C78.9147 96.4714 78.1459 96.4262 77.3544 96.3357L76.8344 96.2791L77.2414 95.9623C81.2889 92.8054 85.6755 91.4815 90.277 92.036C90.684 92.0812 90.7971 92.0812 90.8988 92.0812L90.9327 92.5112C90.4014 92.5791 89.5421 92.8393 88.4002 93.6993C86.0373 95.5436 83.0413 96.4941 79.6608 96.4941V96.4714ZM77.9424 95.9623C81.9446 96.3357 85.4607 95.4305 88.1402 93.3372C88.7394 92.8846 89.2708 92.5904 89.723 92.3981C85.5738 92.0247 81.6167 93.224 77.931 95.9623H77.9424Z" fill="#92DEED"/>
<path d="M66.0034 140C64.5449 140 63.0413 139.909 61.515 139.728L61.3228 139.706V139.513C61.8315 119.61 67.7897 103.317 77.2414 95.9508L77.3092 95.8943H77.3997C82.329 96.494 86.58 95.1588 89.463 92.1377C86.6478 89.8747 85.0989 87.2609 84.9633 84.4662C84.7711 80.5738 87.3375 76.4438 92.3686 72.5175L92.6173 72.3252L92.7077 72.6307C94.9237 80.4607 94.0192 87.4872 90.2431 91.9114C90.1978 91.968 90.1413 92.0245 90.0961 92.0811C90.537 92.4206 91.0232 92.7487 91.5206 93.0768L91.5885 93.1221L91.6111 93.2013C95.9525 108.601 94.2001 122.405 86.7835 131.084C81.8089 136.911 74.5393 140 66.0034 140ZM61.7637 139.321C71.9955 140.487 80.7688 137.477 86.4669 130.801C93.7705 122.247 95.5003 108.612 91.2267 93.3937C90.7292 93.0768 90.2544 92.7374 89.8021 92.3979C86.84 95.5209 82.4873 96.9126 77.4449 96.3355C68.1515 103.634 62.3064 119.678 61.7637 139.321ZM92.3799 73.0607C87.6314 76.8286 85.2233 80.7662 85.3929 84.4435C85.5172 87.1138 87.0209 89.6258 89.7569 91.8096C89.8134 91.753 89.87 91.6851 89.9152 91.6285C93.5444 87.3741 94.4375 80.6191 92.3799 73.0494V73.0607Z" fill="#92DEED"/>
<path d="M81.7637 135.214C75.9186 116.635 78.1006 101.122 87.5862 93.7332L87.8462 94.0726C78.5076 101.348 76.3935 116.68 82.1707 135.089L81.7637 135.214Z" fill="#92DEED"/>
<path d="M112.041 104.12C110.582 104.12 109.079 104.03 107.552 103.849H107.462L107.405 103.769C101.899 96.7995 95.7942 92.9411 89.8022 92.3866C86.8287 95.5435 82.4308 96.9352 77.3318 96.3356L76.8118 96.279L77.2188 95.9622C81.1193 92.9184 85.3477 91.6059 89.6326 91.9454C89.723 91.8548 89.8022 91.753 89.8926 91.6512C93.5783 87.3402 94.4375 80.4607 92.2668 72.7665L92.2216 72.6307L92.3347 72.5402C101.775 65.1855 118.621 59.4375 137.388 57.1745L137.569 57.1519L137.614 57.3329C141.956 72.7326 140.204 86.5368 132.787 95.2154C127.812 101.043 120.543 104.132 112.007 104.132L112.041 104.12ZM107.688 103.43C117.965 104.641 126.772 101.62 132.493 94.9212C139.785 86.3897 141.526 72.8004 137.275 57.6158C118.722 59.8788 102.103 65.5362 92.7304 72.7778C94.8898 80.5512 93.9853 87.5212 90.2318 91.9227C90.2092 91.9454 90.1979 91.968 90.1752 91.9793C96.1447 92.6469 102.205 96.5166 107.688 103.43ZM77.931 95.9622C82.5212 96.3808 86.4896 95.1135 89.2482 92.3414C85.3477 92.1038 81.5037 93.3031 77.931 95.9622Z" fill="#92DEED"/>
<path d="M90.0283 92.4999C89.1916 92.4999 88.3324 92.4433 87.4619 92.3414L87.5071 91.9115C93.3409 92.613 98.338 90.9044 101.572 87.1139C105.709 82.2711 106.682 74.5317 104.251 65.8871L104.669 65.7739C107.145 74.5543 106.139 82.4409 101.911 87.3968C99.0616 90.7347 94.9011 92.4999 90.0283 92.4999Z" fill="#92DEED"/>
<path d="M101.153 95.2834C100.068 95.2834 98.9599 95.2155 97.818 95.0797L97.8632 94.6498C105.483 95.5663 112.007 93.3372 116.246 88.3813C121.651 82.0562 122.928 71.9519 119.74 60.6822L120.158 60.5691C123.38 71.9859 122.08 82.2259 116.574 88.6641C112.877 92.9978 107.484 95.2834 101.153 95.2834Z" fill="#92DEED"/>
<path d="M127.891 99.4472C112.154 88.8112 97.1849 86.7971 87.8463 94.0726L87.5862 93.7332C97.0718 86.3332 112.233 88.3359 128.129 99.0851L127.891 99.4359V99.4472Z" fill="#92DEED"/>
<path d="M112.086 104.12C110.616 104.12 109.101 104.03 107.552 103.849H107.462L107.405 103.769C102.284 97.2747 96.5291 93.405 90.7519 92.5224C89.6439 92.7487 88.7394 93.4163 88.3889 93.6765L88.1289 93.3371C97.6145 85.9484 112.968 87.8041 129.203 98.293L129.452 98.4515L129.214 98.6325C124.579 102.253 118.711 104.109 112.075 104.109L112.086 104.12ZM107.688 103.43C115.919 104.403 123.188 102.695 128.717 98.4967C114.064 89.094 100.17 86.797 90.8084 92.0698C90.8423 92.0698 90.8536 92.0698 90.8762 92.0698V92.1151C96.7326 93.0203 102.521 96.9239 107.688 103.441V103.43Z" fill="#92DEED"/>
<path d="M137.241 57.446C134.279 49.8876 122.793 44.3886 105.732 42.3405L105.585 42.3179L105.551 42.1821C99.9435 22.3357 90.0396 7.19628 78.3607 0.667545L77.411 0.135742L78.485 0.260207C103.053 3.2021 129.599 28.7852 137.648 57.2989L137.241 57.4347V57.446ZM105.924 41.9332C121.447 43.8115 132.38 48.5638 136.552 55.1491C127.948 28.129 102.962 4.2657 79.5026 0.848585C90.8423 7.68282 100.43 22.5733 105.924 41.9445V41.9332Z" fill="#92DEED"/>
<path d="M105.879 42.3065L105.642 41.9558C123.38 29.6903 123.912 30.1543 124.161 30.3353C124.194 30.3692 124.319 30.4824 124.24 30.6974L123.844 30.539C123.844 30.539 123.844 30.5955 123.878 30.6408C123.912 30.6861 123.957 30.6974 123.968 30.6974C123.663 30.6974 121.436 31.5686 105.913 42.3065H105.879Z" fill="#92DEED"/>
<path d="M134.505 49.503C133.906 48.0886 133.137 46.3574 132.448 44.8865C127.462 34.5899 120.147 24.9269 111.543 17.2327C109.746 15.7052 107.439 13.8269 105.574 12.3673L105.834 12.0278C107.891 13.544 109.893 15.1734 111.826 16.9046C112.086 17.1196 112.323 17.3345 112.561 17.5382C113.375 18.2397 114.347 19.2015 115.206 20.0388C115.489 20.3217 115.76 20.5933 116.02 20.8422C118.033 22.7997 121.108 26.3526 122.793 28.525C124.059 30.1544 125.721 32.4966 127.858 35.6874C128.457 36.5926 129.146 37.7694 129.746 38.8103L130.141 39.4892C130.82 40.6434 131.702 42.3067 132.335 43.6192C132.493 43.9586 132.674 44.3207 132.855 44.7054C133.601 46.2443 134.291 47.7831 134.924 49.3446L134.528 49.5143L134.505 49.503Z" fill="#92DEED"/>
<path d="M107.744 103.871L107.552 103.849C82.9847 100.907 56.4387 75.3236 48.3889 46.8099L48.3324 46.5949L48.5472 46.5384C67.7445 41.5485 88.615 39.8625 105.777 41.9219L105.924 41.9445L105.958 42.0803C111.588 62.0172 112.256 84.4774 107.778 103.679L107.733 103.871H107.744ZM48.8638 46.9118C56.9248 75.1087 83.1091 100.386 107.405 103.407C111.803 84.353 111.136 62.1191 105.585 42.3405C88.5585 40.3265 67.9028 41.9898 48.8638 46.9118Z" fill="#92DEED"/>
<path d="M110.288 84.3078C92.4929 82.1806 73.273 63.658 67.4505 43.0082L67.8688 42.895C73.6574 63.3864 92.7077 81.7732 110.345 83.8778L110.3 84.3078H110.288Z" fill="#92DEED"/>
<path d="M109.757 63.3865C100.271 62.255 90.0169 52.377 86.9078 41.3675L87.3261 41.2544C90.39 52.1054 100.475 61.8476 109.813 62.9565L109.768 63.3865H109.757Z" fill="#92DEED"/>
<path d="M83.3578 94.0272L82.9961 93.8009C93.5331 77.0661 101.752 58.2267 105.551 42.0916L105.969 42.1934C102.159 58.3738 93.9175 77.2698 83.3578 94.0272Z" fill="#92DEED"/>
<path d="M48.4566 47.0135L48.4001 46.8099C44.0587 31.4102 45.8111 17.606 53.2277 8.92739C59.0502 2.09316 68.027 -0.973198 78.4849 0.282763L78.564 0.305393C90.3334 6.8907 100.328 22.1206 105.958 42.0802L106.048 42.3857L105.732 42.3518C88.6149 40.3038 67.8122 41.9897 48.6601 46.957L48.4566 47.0135ZM74.0078 0.429857C65.5963 0.429857 58.4397 3.47358 53.5442 9.19895C46.2633 17.7304 44.5109 31.3084 48.7506 46.4817C67.7783 41.5597 88.4114 39.8851 105.461 41.8765C99.8529 22.1998 89.9942 7.1962 78.3944 0.690101C76.9021 0.509062 75.4323 0.429857 73.9965 0.429857H74.0078Z" fill="#92DEED"/>
<path d="M67.4505 43.0083C64.2962 31.8517 65.5738 21.8493 70.9553 15.5582C75.1837 10.6022 81.6959 8.37317 89.2821 9.27837L89.2369 9.70834C81.7976 8.82577 75.4211 10.9982 71.2832 15.8297C66.0034 22.0077 64.7597 31.8743 67.8689 42.8838L67.4505 42.9969V43.0083Z" fill="#92DEED"/>
<path d="M86.9079 41.3785C85.2233 35.4155 85.913 30.0635 88.7847 26.703C91.0571 24.0439 94.5393 22.8446 98.6094 23.3311L98.5642 23.7611C94.6411 23.2858 91.2832 24.44 89.1125 26.9858C86.3313 30.2445 85.6756 35.4494 87.3149 41.2653L86.8966 41.3785H86.9079Z" fill="#92DEED"/>
<path d="M105.642 42.3181C88.0271 30.5165 66.7722 22.9921 47.3036 21.6682L47.3375 21.2383C66.8739 22.5734 88.208 30.1205 105.879 41.9673L105.642 42.3294V42.3181Z" fill="#92DEED"/>
<path d="M105.585 42.2613C92.1086 24.0782 74.7541 10.5115 57.965 5.05773L58.1006 4.65039C74.9689 10.1381 92.4025 23.75 105.936 42.0124L105.596 42.2726L105.585 42.2613Z" fill="#92DEED"/>
<path d="M137.241 57.446C134.279 49.8876 122.793 44.3886 105.732 42.3405L105.585 42.3179L105.551 42.1821C99.9435 22.3357 90.0396 7.19628 78.3607 0.667545L77.411 0.135742L78.485 0.260207C103.053 3.2021 129.599 28.7852 137.648 57.2989L137.241 57.4347V57.446ZM105.924 41.9332C121.447 43.8115 132.38 48.5638 136.552 55.1491C127.948 28.129 102.962 4.2657 79.5026 0.848585C90.8423 7.68282 100.43 22.5733 105.924 41.9445V41.9332Z" fill="#92DEED"/>
<path d="M131.702 50.6911C125.913 30.1997 106.863 11.8129 89.2256 9.70829L89.2708 9.27832C107.066 11.4055 126.286 29.9281 132.109 50.5779L131.69 50.6911H131.702Z" fill="#92DEED"/>
<path d="M121.051 45.4636C117.988 34.6126 107.903 24.8704 98.5641 23.7615L98.6094 23.3315C108.106 24.463 118.349 34.341 121.458 45.3505L121.04 45.4636H121.051Z" fill="#92DEED"/>
<path d="M105.969 42.182L105.551 42.0802C109.327 26.0129 108.31 14.4604 102.747 10.3757L102.996 10.0249C108.705 14.2114 109.791 25.9224 105.958 42.1707L105.969 42.182Z" fill="#92DEED"/>
<path d="M112.041 104.12C110.582 104.12 109.079 104.03 107.552 103.849L107.315 103.815L107.371 103.577C111.826 84.4322 111.159 62.0625 105.551 42.1934L105.461 41.8879L105.777 41.9219C123.007 43.9812 134.618 49.5821 137.637 57.2989V57.3215C141.99 72.7212 140.237 86.5255 132.821 95.204C127.846 101.031 120.577 104.12 112.041 104.12ZM107.835 103.453C118.055 104.618 126.806 101.586 132.493 94.9212C139.808 86.3557 141.538 72.6986 137.23 57.446C134.279 49.9442 122.928 44.4564 106.037 42.3971C111.566 62.1757 112.21 84.3982 107.824 103.453H107.835Z" fill="#92DEED"/>
<path d="M113.544 84.5C112.482 84.5 111.396 84.4322 110.288 84.3077L110.333 83.8777C117.784 84.7716 124.149 82.5878 128.287 77.7563C133.567 71.5784 134.811 61.7117 131.701 50.7023L132.12 50.5891C135.274 61.7457 133.997 71.7481 128.615 78.0392C125.008 82.271 119.729 84.5114 113.544 84.5114V84.5Z" fill="#92DEED"/>
<path d="M111.498 63.4995C110.933 63.4995 110.356 63.4656 109.757 63.3977L109.802 62.9677C113.725 63.4316 117.083 62.2888 119.254 59.743C122.035 56.4843 122.691 51.2794 121.051 45.4635L121.47 45.3503C123.154 51.3133 122.465 56.6653 119.593 60.0258C117.66 62.3001 114.822 63.4995 111.509 63.4995H111.498Z" fill="#92DEED"/>
<path d="M138.519 82.7237C135.218 68.8289 123.233 54.0968 105.642 42.3067L105.879 41.9446C123.561 53.7913 135.613 68.6139 138.937 82.6105L138.519 82.7124V82.7237Z" fill="#92DEED"/>
<path d="M127.801 99.2773C127.168 81.2299 119.073 60.4444 105.585 42.2612L105.924 42.001C119.457 60.252 127.586 81.1281 128.219 99.2547H127.79L127.801 99.2773Z" fill="#92DEED"/>
<path d="M112.041 104.12C110.639 104.12 109.203 104.041 107.745 103.871L107.315 103.815C82.8152 100.737 56.4161 75.2217 48.3889 46.8099C44.0475 31.4102 45.7999 17.606 53.2165 8.92739C59.0503 2.09316 68.0271 -0.973198 78.485 0.282763C87.394 1.34637 96.8344 5.40844 105.811 12.0277C107.089 12.9781 108.536 14.0644 109.587 14.9809C109.87 15.2185 110.164 15.4788 110.481 15.7503C111.295 16.4518 112.222 17.2439 112.934 17.9002C113.669 18.5791 114.573 19.4503 115.365 20.231L116.077 20.9212C118.745 23.5124 121.662 27.1332 122.759 28.5023C124.409 30.5616 125.065 31.5573 127.835 35.6986C128.445 36.6151 129.146 37.8258 129.757 38.8894L130.209 39.6588C131.17 41.3108 132.301 43.6191 133.081 45.2145C133.477 46.0405 133.917 47.0588 134.336 48.0319C134.528 48.4958 134.72 48.9371 134.901 49.3331C135.986 51.9808 136.914 54.6625 137.66 57.3102C142.001 72.7098 140.249 86.5141 132.832 95.1926C127.858 101.02 120.588 104.109 112.052 104.109L112.041 104.12ZM107.835 103.453C118.055 104.618 126.806 101.586 132.493 94.9211C139.808 86.3557 141.538 72.6872 137.23 57.4346C136.484 54.7982 135.568 52.1279 134.494 49.5028C134.324 49.1068 134.132 48.6655 133.94 48.2016C133.522 47.2285 133.092 46.2215 132.696 45.3955C131.928 43.8114 130.797 41.5032 129.847 39.8625L129.395 39.0931C128.785 38.0408 128.095 36.8414 127.484 35.9249C124.726 31.7949 124.07 30.8105 122.431 28.7738C121.334 27.4047 118.429 23.7952 115.783 21.2268L115.071 20.5365C114.279 19.7671 113.386 18.8846 112.651 18.217C111.939 17.572 111.023 16.78 110.209 16.0784C109.893 15.8069 109.587 15.5466 109.316 15.309C108.265 14.3925 106.761 13.261 105.562 12.3785C96.6535 5.80446 87.2697 1.76502 78.4398 0.712731C68.1176 -0.520599 59.2764 2.50049 53.5444 9.21027C46.2295 17.7757 44.4997 31.4442 48.8072 46.6967C56.7892 74.9841 83.0526 100.375 107.417 103.396C111.826 84.2963 111.148 62.0059 105.551 42.1934L105.969 42.0802C106.003 42.1821 106.026 42.2952 106.06 42.397C106.06 42.397 106.083 42.4762 106.094 42.5215C111.588 62.2661 112.222 84.4321 107.846 103.441L107.835 103.453Z" fill="#92DEED"/>
</g>
<defs>
<clipPath id="clip0_1_978">
<rect width="140" height="140" fill="white"/>
</clipPath>
</defs>
</svg>
