<svg width="176" height="28" viewBox="0 0 176 28" fill="none" xmlns="http://www.w3.org/2000/svg">
<path d="M3.67301 28L0.00012207 0H5.23L7.94475 24.32H8.66336L12.1766 0H21.2789L24.7921 24.32H25.5108L28.2255 0H33.4554L29.7825 28H20.6801L17.0871 3.12H16.3684L12.7754 28H3.67301Z" fill="url(#paint0_linear_1_41)"/>
<path d="M34.6484 28L41.9942 0H51.1764L58.5222 28H53.0927L51.5756 21.84H41.5949L40.0779 28H34.6484ZM42.8325 16.96H50.338L46.9446 3.32H46.226L42.8325 16.96Z" fill="url(#paint1_linear_1_41)"/>
<path d="M65.2248 28L58.1186 0H63.5481L69.4566 24.6H70.0156L75.9241 0H81.3536L74.2474 28H65.2248Z" fill="url(#paint2_linear_1_41)"/>
<path d="M84.7137 28V0H102.679V4.8H89.9835V11.48H101.561V16.28H89.9835V23.2H102.918V28H84.7137Z" fill="url(#paint3_linear_1_41)"/>
<path d="M108.031 28V0H113.101L124.519 26.48H124.998V0H127.553V28H122.483L111.065 1.48H110.586V28H108.031Z" fill="white"/>
<path d="M134.425 28V0H151.313V2.32H136.98V12.8H150.195V15.12H136.98V25.68H151.472V28H134.425Z" fill="white"/>
<path d="M164.103 28V2.32H154.761V0H176V2.32H166.658V28H164.103Z" fill="white"/>
<defs>
<linearGradient id="paint0_linear_1_41" x1="34.9535" y1="-2.5198e-06" x2="96.235" y2="28.8866" gradientUnits="userSpaceOnUse">
<stop stop-color="#92DEED"/>
<stop offset="1" stop-color="white"/>
</linearGradient>
<linearGradient id="paint1_linear_1_41" x1="34.9535" y1="-2.5198e-06" x2="96.235" y2="28.8866" gradientUnits="userSpaceOnUse">
<stop stop-color="#92DEED"/>
<stop offset="1" stop-color="white"/>
</linearGradient>
<linearGradient id="paint2_linear_1_41" x1="34.9535" y1="-2.5198e-06" x2="96.235" y2="28.8866" gradientUnits="userSpaceOnUse">
<stop stop-color="#92DEED"/>
<stop offset="1" stop-color="white"/>
</linearGradient>
<linearGradient id="paint3_linear_1_41" x1="34.9535" y1="-2.5198e-06" x2="96.235" y2="28.8866" gradientUnits="userSpaceOnUse">
<stop stop-color="#92DEED"/>
<stop offset="1" stop-color="white"/>
</linearGradient>
</defs>
</svg>
