<svg width="1289" height="113" viewBox="0 0 1289 113" fill="none" xmlns="http://www.w3.org/2000/svg">
<path d="M42.0032 55.784C38.9418 55.784 36.2912 55.2427 34.0512 54.16C31.8485 53.0773 30.1498 51.5467 28.9552 49.568C27.7605 47.5893 27.1632 45.2933 27.1632 42.68V42.12H34.4432V42.624C34.4432 44.4907 35.0592 46.096 36.2912 47.44C37.5605 48.7467 39.4272 49.4 41.8912 49.4C44.3552 49.4 46.2405 48.7467 47.5472 47.44C48.8912 46.096 49.5632 44.36 49.5632 42.232V41.672C49.5632 39.5813 48.8912 37.92 47.5472 36.688C46.2405 35.456 44.5978 34.84 42.6192 34.84C41.5365 34.84 40.6405 34.9893 39.9312 35.288C39.2218 35.5867 38.6432 35.96 38.1952 36.408C37.7472 36.856 37.3738 37.304 37.0752 37.752H28.3952V15.8H55.1632V22.296H35.5632V31.872H36.5712C36.9445 31.3867 37.4485 30.92 38.0832 30.472C38.7178 30.024 39.5392 29.6507 40.5472 29.352C41.5552 29.0533 42.7498 28.904 44.1312 28.904C46.4458 28.904 48.5552 29.3893 50.4592 30.36C52.3632 31.3307 53.8752 32.768 54.9952 34.672C56.1525 36.5387 56.7312 38.8533 56.7312 41.616V42.288C56.7312 45.0507 56.1338 47.44 54.9392 49.456C53.7818 51.472 52.1018 53.04 49.8992 54.16C47.6965 55.2427 45.0645 55.784 42.0032 55.784ZM76.7573 55.784C72.1279 55.784 68.4133 54.5147 65.6133 51.976C62.8133 49.4 61.4133 45.5173 61.4133 40.328V30.472C61.4133 25.432 62.8133 21.6053 65.6133 18.992C68.4133 16.3413 72.1279 15.016 76.7573 15.016C81.4239 15.016 85.1386 16.3413 87.9013 18.992C90.7013 21.6053 92.1013 25.432 92.1013 30.472V40.328C92.1013 45.5173 90.7013 49.4 87.9013 51.976C85.1386 54.5147 81.4239 55.784 76.7573 55.784ZM76.7573 49.4C79.5573 49.4 81.6106 48.6347 82.9173 47.104C84.2613 45.5733 84.9333 43.3893 84.9333 40.552V30.136C84.9333 27.2613 84.1866 25.096 82.6933 23.64C81.2373 22.1467 79.2586 21.4 76.7573 21.4C74.1813 21.4 72.1653 22.1653 70.7093 23.696C69.2906 25.2267 68.5813 27.3733 68.5813 30.136V40.552C68.5813 43.5013 69.2533 45.7227 70.5973 47.216C71.9786 48.672 74.0319 49.4 76.7573 49.4ZM113.07 55.784C108.44 55.784 104.726 54.5147 101.926 51.976C99.1258 49.4 97.7258 45.5173 97.7258 40.328V30.472C97.7258 25.432 99.1258 21.6053 101.926 18.992C104.726 16.3413 108.44 15.016 113.07 15.016C117.736 15.016 121.451 16.3413 124.214 18.992C127.014 21.6053 128.414 25.432 128.414 30.472V40.328C128.414 45.5173 127.014 49.4 124.214 51.976C121.451 54.5147 117.736 55.784 113.07 55.784ZM113.07 49.4C115.87 49.4 117.923 48.6347 119.23 47.104C120.574 45.5733 121.246 43.3893 121.246 40.552V30.136C121.246 27.2613 120.499 25.096 119.006 23.64C117.55 22.1467 115.571 21.4 113.07 21.4C110.494 21.4 108.478 22.1653 107.022 23.696C105.603 25.2267 104.894 27.3733 104.894 30.136V40.552C104.894 43.5013 105.566 45.7227 106.91 47.216C108.291 48.672 110.344 49.4 113.07 49.4ZM145.294 47.104V38.592H136.894V32.208H145.294V23.696H151.902V32.208H160.302V38.592H151.902V47.104H145.294Z" fill="#11112B"/>
<path d="M10.6801 101.2C10.6801 96.04 3.16008 98.28 3.16008 94.68C3.16008 93.18 4.34008 92.4 5.84008 92.44C7.54008 92.46 8.42008 93.52 8.54008 94.46H10.5401C10.3201 92.34 8.58008 90.88 5.92008 90.88C3.16008 90.88 1.30008 92.44 1.30008 94.74C1.30008 99.92 8.84008 97.52 8.84008 101.28C8.84008 102.6 7.80008 103.6 6.04008 103.6C4.10008 103.6 3.28008 102.44 3.16008 101.28H1.22008C1.26008 103.58 3.24008 105.14 6.04008 105.14C9.06008 105.14 10.6801 103.18 10.6801 101.2ZM23.0784 94.04H21.2584V100.06C21.2584 102.42 19.9984 103.58 18.1184 103.58C16.2784 103.58 15.0584 102.44 15.0584 100.22V94.04H13.2584V100.46C13.2584 103.6 15.2384 105.16 17.7584 105.16C19.2184 105.16 20.5584 104.52 21.2584 103.38V105H23.0784V94.04ZM25.4713 99.5C25.4713 102.98 27.6913 105.18 30.8113 105.18C33.5313 105.18 35.3113 103.66 35.8713 101.48H33.9113C33.5113 102.86 32.4313 103.64 30.8113 103.64C28.8113 103.64 27.3313 102.22 27.3313 99.5C27.3313 96.82 28.8113 95.4 30.8113 95.4C32.4313 95.4 33.5313 96.24 33.9113 97.56H35.8713C35.3113 95.26 33.5313 93.86 30.8113 93.86C27.6913 93.86 25.4713 96.06 25.4713 99.5ZM37.6198 99.5C37.6198 102.98 39.8398 105.18 42.9598 105.18C45.6798 105.18 47.4598 103.66 48.0198 101.48H46.0598C45.6598 102.86 44.5798 103.64 42.9598 103.64C40.9598 103.64 39.4798 102.22 39.4798 99.5C39.4798 96.82 40.9598 95.4 42.9598 95.4C44.5798 95.4 45.6798 96.24 46.0598 97.56H48.0198C47.4598 95.26 45.6798 93.86 42.9598 93.86C39.8398 93.86 37.6198 96.06 37.6198 99.5ZM55.1082 95.4C56.9882 95.4 58.5882 96.58 58.5682 98.72H51.6482C51.8482 96.58 53.3282 95.4 55.1082 95.4ZM60.2282 101.62H58.2682C57.8682 102.8 56.8282 103.64 55.1882 103.64C53.3282 103.64 51.7682 102.42 51.6282 100.2H60.3882C60.4282 99.82 60.4482 99.5 60.4482 99.1C60.4482 96.1 58.3682 93.86 55.1882 93.86C51.9882 93.86 49.7682 96.04 49.7682 99.5C49.7682 102.98 52.0682 105.18 55.1882 105.18C57.9082 105.18 59.6682 103.62 60.2282 101.62ZM70.7305 102.02C70.6505 98.1 64.2905 99.52 64.2905 96.92C64.2905 96.04 65.0905 95.4 66.4305 95.4C67.8905 95.4 68.7305 96.2 68.8105 97.3H70.6305C70.5105 95.16 68.9105 93.86 66.4905 93.86C64.0505 93.86 62.4705 95.24 62.4705 96.92C62.4705 101 68.9505 99.58 68.9505 102.02C68.9505 102.92 68.1505 103.64 66.7105 103.64C65.1705 103.64 64.2305 102.84 64.1305 101.78H62.2505C62.3705 103.78 64.1705 105.18 66.7305 105.18C69.1505 105.18 70.7305 103.82 70.7305 102.02ZM81.1798 102.02C81.0998 98.1 74.7398 99.52 74.7398 96.92C74.7398 96.04 75.5398 95.4 76.8798 95.4C78.3398 95.4 79.1798 96.2 79.2598 97.3H81.0798C80.9598 95.16 79.3598 93.86 76.9398 93.86C74.4998 93.86 72.9198 95.24 72.9198 96.92C72.9198 101 79.3998 99.58 79.3998 102.02C79.3998 102.92 78.5998 103.64 77.1598 103.64C75.6198 103.64 74.6798 102.84 74.5798 101.78H72.6998C72.8198 103.78 74.6198 105.18 77.1798 105.18C79.5998 105.18 81.1798 103.82 81.1798 102.02ZM84.089 105H85.909V95.54H88.209V94.04H85.909V93.26C85.909 91.84 86.449 91.24 88.089 91.24V89.72C85.289 89.72 84.089 90.82 84.089 93.26V94.04H82.669V95.54H84.089V105ZM100.051 94.04H98.231V100.06C98.231 102.42 96.971 103.58 95.091 103.58C93.251 103.58 92.031 102.44 92.031 100.22V94.04H90.231V100.46C90.231 103.6 92.211 105.16 94.731 105.16C96.191 105.16 97.531 104.52 98.231 103.38V105H100.051V94.04ZM103.124 105H104.944V90.2H103.124V105ZM115.198 97.68V92.56H117.878C119.958 92.56 120.838 93.52 120.838 95.14C120.838 96.7 119.958 97.68 117.878 97.68H115.198ZM122.698 95.14C122.698 92.86 121.158 91.06 117.878 91.06H113.378V105H115.198V99.18H117.878C121.338 99.18 122.698 97.26 122.698 95.14ZM126.78 99.04C126.78 96.5 128.1 95.72 129.84 95.72H130.32V93.84C128.58 93.84 127.4 94.6 126.78 95.82V94.04H124.96V105H126.78V99.04ZM142.821 99.5C142.821 96.04 140.401 93.86 137.281 93.86C134.181 93.86 131.741 96.04 131.741 99.5C131.741 102.98 134.101 105.18 137.201 105.18C140.321 105.18 142.821 102.98 142.821 99.5ZM133.601 99.5C133.601 96.74 135.341 95.44 137.261 95.44C139.141 95.44 140.961 96.74 140.961 99.5C140.961 102.28 139.101 103.58 137.201 103.58C135.301 103.58 133.601 102.28 133.601 99.5ZM146.194 92.26C146.874 92.26 147.414 91.72 147.414 91.02C147.414 90.32 146.874 89.78 146.194 89.78C145.514 89.78 144.974 90.32 144.974 91.02C144.974 91.72 145.514 92.26 146.194 92.26ZM145.274 94.04V107.34C145.274 108.3 144.894 108.66 143.894 108.66H143.134V110.2H144.194C146.054 110.2 147.094 109.36 147.094 107.38V94.04H145.274ZM154.835 95.4C156.715 95.4 158.315 96.58 158.295 98.72H151.375C151.575 96.58 153.055 95.4 154.835 95.4ZM159.955 101.62H157.995C157.595 102.8 156.555 103.64 154.915 103.64C153.055 103.64 151.495 102.42 151.355 100.2H160.115C160.155 99.82 160.175 99.5 160.175 99.1C160.175 96.1 158.095 93.86 154.915 93.86C151.715 93.86 149.495 96.04 149.495 99.5C149.495 102.98 151.795 105.18 154.915 105.18C157.635 105.18 159.395 103.62 159.955 101.62ZM161.897 99.5C161.897 102.98 164.117 105.18 167.237 105.18C169.957 105.18 171.737 103.66 172.297 101.48H170.337C169.937 102.86 168.857 103.64 167.237 103.64C165.237 103.64 163.757 102.22 163.757 99.5C163.757 96.82 165.237 95.4 167.237 95.4C168.857 95.4 169.957 96.24 170.337 97.56H172.297C171.737 95.26 169.957 93.86 167.237 93.86C164.117 93.86 161.897 96.06 161.897 99.5ZM175.126 102C175.126 104.2 176.226 105 178.166 105H179.806V103.46H178.466C177.346 103.46 176.946 103.08 176.946 102V95.54H179.806V94.04H176.946V91.28H175.126V94.04H173.706V95.54H175.126V102ZM189.891 102.02C189.811 98.1 183.451 99.52 183.451 96.92C183.451 96.04 184.251 95.4 185.591 95.4C187.051 95.4 187.891 96.2 187.971 97.3H189.791C189.671 95.16 188.071 93.86 185.651 93.86C183.211 93.86 181.631 95.24 181.631 96.92C181.631 101 188.111 99.58 188.111 102.02C188.111 102.92 187.311 103.64 185.871 103.64C184.331 103.64 183.391 102.84 183.291 101.78H181.411C181.531 103.78 183.331 105.18 185.891 105.18C188.311 105.18 189.891 103.82 189.891 102.02Z" fill="#11112B"/>
<path d="M606.984 55.784C604.072 55.784 601.533 55.2987 599.368 54.328C597.24 53.3573 595.578 51.9573 594.384 50.128C593.226 48.2987 592.648 46.1147 592.648 43.576H599.928C599.928 45.144 600.469 46.5067 601.552 47.664C602.672 48.8213 604.482 49.4 606.984 49.4C609.522 49.4 611.464 48.7467 612.808 47.44C614.152 46.096 614.824 44.2853 614.824 42.008V37.976H613.816C613.181 38.7227 612.21 39.432 610.904 40.104C609.634 40.776 607.73 41.112 605.192 41.112C602.952 41.112 600.861 40.6267 598.92 39.656C596.978 38.6853 595.41 37.2853 594.216 35.456C593.021 33.5893 592.424 31.3493 592.424 28.736V28.064C592.424 25.4507 593.04 23.1733 594.272 21.232C595.504 19.2907 597.24 17.7787 599.48 16.696C601.72 15.576 604.333 15.016 607.32 15.016C610.306 15.016 612.901 15.576 615.104 16.696C617.306 17.816 619.005 19.3653 620.2 21.344C621.394 23.3227 621.992 25.6 621.992 28.176V41.56C621.992 44.7333 621.338 47.384 620.032 49.512C618.762 51.6027 616.989 53.1707 614.712 54.216C612.472 55.2613 609.896 55.784 606.984 55.784ZM607.208 35.4C608.776 35.4 610.12 35.12 611.24 34.56C612.397 34 613.274 33.216 613.872 32.208C614.506 31.2 614.824 30.0053 614.824 28.624V28.176C614.824 26.0853 614.133 24.4427 612.752 23.248C611.408 22.016 609.56 21.4 607.208 21.4C604.856 21.4 602.989 22.016 601.608 23.248C600.264 24.4427 599.592 26.0853 599.592 28.176V28.624C599.592 30.0053 599.89 31.2 600.488 32.208C601.122 33.216 602.018 34 603.176 34.56C604.333 35.12 605.677 35.4 607.208 35.4ZM641.601 55.784C638.614 55.784 635.963 55.336 633.649 54.44C631.371 53.544 629.579 52.256 628.273 50.576C627.003 48.8587 626.369 46.8427 626.369 44.528V43.856C626.369 42.064 626.686 40.5893 627.321 39.432C627.955 38.2373 628.739 37.304 629.673 36.632C630.643 35.96 631.558 35.4933 632.417 35.232V34.224C631.558 33.9253 630.699 33.44 629.841 32.768C628.982 32.096 628.273 31.2 627.713 30.08C627.19 28.96 626.929 27.616 626.929 26.048V25.376C626.929 23.3227 627.526 21.5307 628.721 20C629.953 18.432 631.67 17.2187 633.873 16.36C636.075 15.464 638.651 15.016 641.601 15.016C644.55 15.016 647.126 15.464 649.329 16.36C651.531 17.2187 653.23 18.432 654.425 20C655.657 21.5307 656.273 23.3227 656.273 25.376V26.048C656.273 27.616 655.993 28.96 655.433 30.08C654.91 31.2 654.219 32.096 653.361 32.768C652.539 33.44 651.681 33.9253 650.785 34.224V35.232C651.681 35.4933 652.595 35.96 653.529 36.632C654.462 37.304 655.246 38.2373 655.881 39.432C656.515 40.5893 656.833 42.064 656.833 43.856V44.528C656.833 46.8427 656.179 48.8587 654.873 50.576C653.603 52.256 651.811 53.544 649.497 54.44C647.219 55.336 644.587 55.784 641.601 55.784ZM641.601 49.4C644.177 49.4 646.155 48.9147 647.537 47.944C648.955 46.936 649.665 45.6107 649.665 43.968V43.52C649.665 41.8773 648.974 40.5707 647.593 39.6C646.249 38.592 644.251 38.088 641.601 38.088C638.987 38.088 636.99 38.592 635.609 39.6C634.227 40.5707 633.537 41.8773 633.537 43.52V43.968C633.537 45.6107 634.227 46.936 635.609 47.944C637.027 48.9147 639.025 49.4 641.601 49.4ZM641.601 31.704C643.99 31.704 645.838 31.2747 647.145 30.416C648.451 29.5573 649.105 28.344 649.105 26.776V26.328C649.105 24.76 648.433 23.5467 647.089 22.688C645.745 21.8293 643.915 21.4 641.601 21.4C639.286 21.4 637.457 21.8293 636.113 22.688C634.769 23.5467 634.097 24.76 634.097 26.328V26.776C634.097 28.344 634.75 29.5573 636.057 30.416C637.363 31.2747 639.211 31.704 641.601 31.704ZM666.667 55.728L662.411 52.312L692.539 15.072L696.795 18.488L666.667 55.728ZM690.299 55.56C687.462 55.56 685.24 54.8133 683.635 53.32C682.03 51.7893 681.227 49.7173 681.227 47.104V46.712C681.227 44.0613 682.03 41.9893 683.635 40.496C685.24 38.9653 687.462 38.2 690.299 38.2C693.062 38.2 695.264 38.9653 696.907 40.496C698.55 41.9893 699.371 44.0613 699.371 46.712V47.104C699.371 49.7173 698.568 51.7893 696.963 53.32C695.358 54.8133 693.136 55.56 690.299 55.56ZM690.299 50.968C691.382 50.968 692.222 50.632 692.819 49.96C693.454 49.288 693.771 48.4107 693.771 47.328V46.432C693.771 45.3493 693.454 44.472 692.819 43.8C692.222 43.128 691.382 42.792 690.299 42.792C689.216 42.792 688.358 43.128 687.723 43.8C687.126 44.472 686.827 45.3493 686.827 46.432V47.328C686.827 48.4107 687.126 49.288 687.723 49.96C688.358 50.632 689.216 50.968 690.299 50.968ZM668.907 32.6C666.07 32.6 663.848 31.8533 662.243 30.36C660.638 28.8293 659.835 26.7573 659.835 24.144V23.752C659.835 21.1013 660.638 19.0293 662.243 17.536C663.848 16.0053 666.07 15.24 668.907 15.24C671.67 15.24 673.872 16.0053 675.515 17.536C677.158 19.0293 677.979 21.1013 677.979 23.752V24.144C677.979 26.7573 677.176 28.8293 675.571 30.36C673.966 31.8533 671.744 32.6 668.907 32.6ZM668.907 28.008C669.99 28.008 670.83 27.672 671.427 27C672.062 26.328 672.379 25.4507 672.379 24.368V23.472C672.379 22.3893 672.062 21.512 671.427 20.84C670.83 20.168 669.99 19.832 668.907 19.832C667.824 19.832 666.966 20.168 666.331 20.84C665.734 21.512 665.435 22.3893 665.435 23.472V24.368C665.435 25.4507 665.734 26.328 666.331 27C666.966 27.672 667.824 28.008 668.907 28.008Z" fill="#11112B"/>
<path d="M576.657 101.2C576.657 96.04 569.137 98.28 569.137 94.68C569.137 93.18 570.317 92.4 571.817 92.44C573.517 92.46 574.397 93.52 574.517 94.46H576.517C576.297 92.34 574.557 90.88 571.897 90.88C569.137 90.88 567.277 92.44 567.277 94.74C567.277 99.92 574.817 97.52 574.817 101.28C574.817 102.6 573.777 103.6 572.017 103.6C570.077 103.6 569.257 102.44 569.137 101.28H567.197C567.237 103.58 569.217 105.14 572.017 105.14C575.037 105.14 576.657 103.18 576.657 101.2ZM578.655 99.48C578.655 102.88 580.915 105.18 583.835 105.18C585.855 105.18 587.275 104.14 587.935 102.96V105H589.775V94.04H587.935V96.04C587.295 94.9 585.895 93.86 583.855 93.86C580.915 93.86 578.655 96.06 578.655 99.48ZM587.935 99.5C587.935 102.08 586.215 103.58 584.215 103.58C582.215 103.58 580.515 102.06 580.515 99.48C580.515 96.9 582.215 95.44 584.215 95.44C586.215 95.44 587.935 96.96 587.935 99.5ZM593.251 102C593.251 104.2 594.351 105 596.291 105H597.931V103.46H596.591C595.471 103.46 595.071 103.08 595.071 102V95.54H597.931V94.04H595.071V91.28H593.251V94.04H591.831V95.54H593.251V102ZM600.136 105H601.956V94.04H600.136V105ZM601.076 92.26C601.736 92.26 602.276 91.72 602.276 91.02C602.276 90.32 601.736 89.78 601.076 89.78C600.376 89.78 599.836 90.32 599.836 91.02C599.836 91.72 600.376 92.26 601.076 92.26ZM612.938 102.02C612.858 98.1 606.498 99.52 606.498 96.92C606.498 96.04 607.298 95.4 608.638 95.4C610.098 95.4 610.938 96.2 611.018 97.3H612.838C612.718 95.16 611.118 93.86 608.698 93.86C606.258 93.86 604.678 95.24 604.678 96.92C604.678 101 611.158 99.58 611.158 102.02C611.158 102.92 610.358 103.64 608.918 103.64C607.378 103.64 606.438 102.84 606.338 101.78H604.458C604.578 103.78 606.378 105.18 608.938 105.18C611.358 105.18 612.938 103.82 612.938 102.02ZM615.847 105H617.667V95.54H619.967V94.04H617.667V93.26C617.667 91.84 618.207 91.24 619.847 91.24V89.72C617.047 89.72 615.847 90.82 615.847 93.26V94.04H614.427V95.54H615.847V105ZM622.089 105H623.909V94.04H622.089V105ZM623.029 92.26C623.689 92.26 624.229 91.72 624.229 91.02C624.229 90.32 623.689 89.78 623.029 89.78C622.329 89.78 621.789 90.32 621.789 91.02C621.789 91.72 622.329 92.26 623.029 92.26ZM631.671 95.4C633.551 95.4 635.151 96.58 635.131 98.72H628.211C628.411 96.58 629.891 95.4 631.671 95.4ZM636.791 101.62H634.831C634.431 102.8 633.391 103.64 631.751 103.64C629.891 103.64 628.331 102.42 628.191 100.2H636.951C636.991 99.82 637.011 99.5 637.011 99.1C637.011 96.1 634.931 93.86 631.751 93.86C628.551 93.86 626.331 96.04 626.331 99.5C626.331 102.98 628.631 105.18 631.751 105.18C634.471 105.18 636.231 103.62 636.791 101.62ZM638.733 99.48C638.733 102.88 640.993 105.18 643.933 105.18C645.933 105.18 647.353 104.16 648.013 102.94V105H649.853V90.2H648.013V96C647.253 94.74 645.673 93.86 643.953 93.86C640.993 93.86 638.733 96.06 638.733 99.48ZM648.013 99.5C648.013 102.08 646.293 103.58 644.293 103.58C642.293 103.58 640.593 102.06 640.593 99.48C640.593 96.9 642.293 95.44 644.293 95.44C646.293 95.44 648.013 96.96 648.013 99.5ZM657.581 98.02C657.581 102.2 660.641 105.12 664.541 105.12C667.561 105.12 669.961 103.62 671.001 100.94H668.821C668.061 102.6 666.581 103.54 664.541 103.54C661.621 103.54 659.441 101.42 659.441 98.02C659.441 94.6 661.621 92.48 664.541 92.48C666.581 92.48 668.061 93.42 668.821 95.1H671.001C669.961 92.4 667.561 90.88 664.541 90.88C660.641 90.88 657.581 93.84 657.581 98.02ZM673.71 105H675.53V90.2H673.71V105ZM678.632 105H680.452V94.04H678.632V105ZM679.572 92.26C680.232 92.26 680.772 91.72 680.772 91.02C680.772 90.32 680.232 89.78 679.572 89.78C678.872 89.78 678.332 90.32 678.332 91.02C678.332 91.72 678.872 92.26 679.572 92.26ZM688.214 95.4C690.094 95.4 691.694 96.58 691.674 98.72H684.754C684.954 96.58 686.434 95.4 688.214 95.4ZM693.334 101.62H691.374C690.974 102.8 689.934 103.64 688.294 103.64C686.434 103.64 684.874 102.42 684.734 100.2H693.494C693.534 99.82 693.554 99.5 693.554 99.1C693.554 96.1 691.474 93.86 688.294 93.86C685.094 93.86 682.874 96.04 682.874 99.5C682.874 102.98 685.174 105.18 688.294 105.18C691.014 105.18 692.774 103.62 693.334 101.62ZM703.976 105H705.776V98.54C705.776 95.4 703.836 93.84 701.296 93.84C699.816 93.84 698.496 94.46 697.776 95.6V94.04H695.956V105H697.776V98.94C697.776 96.58 699.056 95.42 700.916 95.42C702.756 95.42 703.976 96.56 703.976 98.8V105ZM709.149 102C709.149 104.2 710.249 105 712.189 105H713.829V103.46H712.489C711.369 103.46 710.969 103.08 710.969 102V95.54H713.829V94.04H710.969V91.28H709.149V94.04H707.729V95.54H709.149V102ZM723.914 102.02C723.834 98.1 717.474 99.52 717.474 96.92C717.474 96.04 718.274 95.4 719.614 95.4C721.074 95.4 721.914 96.2 721.994 97.3H723.814C723.694 95.16 722.094 93.86 719.674 93.86C717.234 93.86 715.654 95.24 715.654 96.92C715.654 101 722.134 99.58 722.134 102.02C722.134 102.92 721.334 103.64 719.894 103.64C718.354 103.64 717.414 102.84 717.314 101.78H715.434C715.554 103.78 717.354 105.18 719.914 105.18C722.334 105.18 723.914 103.82 723.914 102.02Z" fill="#11112B"/>
<path d="M1161.34 55.784C1158.39 55.784 1155.77 55.2613 1153.5 54.216C1151.22 53.1707 1149.43 51.6773 1148.12 49.736C1146.85 47.7573 1146.22 45.424 1146.22 42.736V41.728H1153.38V42.512C1153.38 44.6027 1154.11 46.2827 1155.57 47.552C1157.02 48.784 1158.95 49.4 1161.34 49.4C1163.76 49.4 1165.63 48.8213 1166.94 47.664C1168.28 46.5067 1168.95 45.0507 1168.95 43.296V42.736C1168.95 41.5413 1168.65 40.5707 1168.06 39.824C1167.46 39.0773 1166.66 38.536 1165.65 38.2C1164.64 37.8267 1163.5 37.64 1162.23 37.64H1154.39V29.8L1167.05 23.08V22.184H1147.22V15.8H1175V25.32L1163.18 31.592V32.488H1165.26C1167.01 32.488 1168.71 32.8427 1170.35 33.552C1172.03 34.2613 1173.41 35.3627 1174.5 36.856C1175.58 38.312 1176.12 40.216 1176.12 42.568V43.24C1176.12 45.7787 1175.5 48 1174.27 49.904C1173.04 51.7707 1171.3 53.2267 1169.06 54.272C1166.86 55.28 1164.29 55.784 1161.34 55.784ZM1195.35 55.784C1192.29 55.784 1189.64 55.2427 1187.4 54.16C1185.2 53.0773 1183.5 51.5467 1182.3 49.568C1181.11 47.5893 1180.51 45.2933 1180.51 42.68V42.12H1187.79V42.624C1187.79 44.4907 1188.41 46.096 1189.64 47.44C1190.91 48.7467 1192.77 49.4 1195.24 49.4C1197.7 49.4 1199.59 48.7467 1200.89 47.44C1202.24 46.096 1202.91 44.36 1202.91 42.232V41.672C1202.91 39.5813 1202.24 37.92 1200.89 36.688C1199.59 35.456 1197.95 34.84 1195.97 34.84C1194.88 34.84 1193.99 34.9893 1193.28 35.288C1192.57 35.5867 1191.99 35.96 1191.54 36.408C1191.09 36.856 1190.72 37.304 1190.42 37.752H1181.74V15.8H1208.51V22.296H1188.91V31.872H1189.92C1190.29 31.3867 1190.8 30.92 1191.43 30.472C1192.07 30.024 1192.89 29.6507 1193.89 29.352C1194.9 29.0533 1196.1 28.904 1197.48 28.904C1199.79 28.904 1201.9 29.3893 1203.81 30.36C1205.71 31.3307 1207.22 32.768 1208.34 34.672C1209.5 36.5387 1210.08 38.8533 1210.08 41.616V42.288C1210.08 45.0507 1209.48 47.44 1208.29 49.456C1207.13 51.472 1205.45 53.04 1203.25 54.16C1201.04 55.2427 1198.41 55.784 1195.35 55.784ZM1226.02 47.104V38.592H1217.62V32.208H1226.02V23.696H1232.62V32.208H1241.02V38.592H1232.62V47.104H1226.02Z" fill="#11112B"/>
<path d="M1112.87 105H1114.69V91.06H1112.87V97.18H1105.77V91.06H1103.95V105H1105.77V98.68H1112.87V105ZM1117.1 99.48C1117.1 102.88 1119.36 105.18 1122.28 105.18C1124.3 105.18 1125.72 104.14 1126.38 102.96V105H1128.22V94.04H1126.38V96.04C1125.74 94.9 1124.34 93.86 1122.3 93.86C1119.36 93.86 1117.1 96.06 1117.1 99.48ZM1126.38 99.5C1126.38 102.08 1124.66 103.58 1122.66 103.58C1120.66 103.58 1118.96 102.06 1118.96 99.48C1118.96 96.9 1120.66 95.44 1122.66 95.44C1124.66 95.44 1126.38 96.96 1126.38 99.5ZM1139.32 105H1141.12V98.54C1141.12 95.4 1139.18 93.84 1136.64 93.84C1135.16 93.84 1133.84 94.46 1133.12 95.6V94.04H1131.3V105H1133.12V98.94C1133.12 96.58 1134.4 95.42 1136.26 95.42C1138.1 95.42 1139.32 96.56 1139.32 98.8V105ZM1143.41 99.48C1143.41 102.88 1145.67 105.18 1148.61 105.18C1150.61 105.18 1152.03 104.16 1152.69 102.94V105H1154.53V90.2H1152.69V96C1151.93 94.74 1150.35 93.86 1148.63 93.86C1145.67 93.86 1143.41 96.06 1143.41 99.48ZM1152.69 99.5C1152.69 102.08 1150.97 103.58 1148.97 103.58C1146.97 103.58 1145.27 102.06 1145.27 99.48C1145.27 96.9 1146.97 95.44 1148.97 95.44C1150.97 95.44 1152.69 96.96 1152.69 99.5ZM1157.61 105H1159.43V90.2H1157.61V105ZM1167.19 95.4C1169.07 95.4 1170.67 96.58 1170.65 98.72H1163.73C1163.93 96.58 1165.41 95.4 1167.19 95.4ZM1172.31 101.62H1170.35C1169.95 102.8 1168.91 103.64 1167.27 103.64C1165.41 103.64 1163.85 102.42 1163.71 100.2H1172.47C1172.51 99.82 1172.53 99.5 1172.53 99.1C1172.53 96.1 1170.45 93.86 1167.27 93.86C1164.07 93.86 1161.85 96.04 1161.85 99.5C1161.85 102.98 1164.15 105.18 1167.27 105.18C1169.99 105.18 1171.75 103.62 1172.31 101.62ZM1174.25 99.48C1174.25 102.88 1176.51 105.18 1179.45 105.18C1181.45 105.18 1182.87 104.16 1183.53 102.94V105H1185.37V90.2H1183.53V96C1182.77 94.74 1181.19 93.86 1179.47 93.86C1176.51 93.86 1174.25 96.06 1174.25 99.48ZM1183.53 99.5C1183.53 102.08 1181.81 103.58 1179.81 103.58C1177.81 103.58 1176.11 102.06 1176.11 99.48C1176.11 96.9 1177.81 95.44 1179.81 95.44C1181.81 95.44 1183.53 96.96 1183.53 99.5ZM1193.1 98.02C1193.1 102.2 1196.16 105.12 1200.06 105.12C1203.08 105.12 1205.48 103.62 1206.52 100.94H1204.34C1203.58 102.6 1202.1 103.54 1200.06 103.54C1197.14 103.54 1194.96 101.42 1194.96 98.02C1194.96 94.6 1197.14 92.48 1200.06 92.48C1202.1 92.48 1203.58 93.42 1204.34 95.1H1206.52C1205.48 92.4 1203.08 90.88 1200.06 90.88C1196.16 90.88 1193.1 93.84 1193.1 98.02ZM1219.63 99.5C1219.63 96.04 1217.21 93.86 1214.09 93.86C1210.99 93.86 1208.55 96.04 1208.55 99.5C1208.55 102.98 1210.91 105.18 1214.01 105.18C1217.13 105.18 1219.63 102.98 1219.63 99.5ZM1210.41 99.5C1210.41 96.74 1212.15 95.44 1214.07 95.44C1215.95 95.44 1217.77 96.74 1217.77 99.5C1217.77 102.28 1215.91 103.58 1214.01 103.58C1212.11 103.58 1210.41 102.28 1210.41 99.5ZM1231.74 94.04H1229.92V100.06C1229.92 102.42 1228.66 103.58 1226.78 103.58C1224.94 103.58 1223.72 102.44 1223.72 100.22V94.04H1221.92V100.46C1221.92 103.6 1223.9 105.16 1226.42 105.16C1227.88 105.16 1229.22 104.52 1229.92 103.38V105H1231.74V94.04ZM1242.83 105H1244.63V98.54C1244.63 95.4 1242.69 93.84 1240.15 93.84C1238.67 93.84 1237.35 94.46 1236.63 95.6V94.04H1234.81V105H1236.63V98.94C1236.63 96.58 1237.91 95.42 1239.77 95.42C1241.61 95.42 1242.83 96.56 1242.83 98.8V105ZM1248.01 102C1248.01 104.2 1249.11 105 1251.05 105H1252.69V103.46H1251.35C1250.23 103.46 1249.83 103.08 1249.83 102V95.54H1252.69V94.04H1249.83V91.28H1248.01V94.04H1246.59V95.54H1248.01V102ZM1256.71 99.04C1256.71 96.5 1258.03 95.72 1259.77 95.72H1260.25V93.84C1258.51 93.84 1257.33 94.6 1256.71 95.82V94.04H1254.89V105H1256.71V99.04ZM1262.35 105H1264.17V94.04H1262.35V105ZM1263.29 92.26C1263.95 92.26 1264.49 91.72 1264.49 91.02C1264.49 90.32 1263.95 89.78 1263.29 89.78C1262.59 89.78 1262.05 90.32 1262.05 91.02C1262.05 91.72 1262.59 92.26 1263.29 92.26ZM1271.93 95.4C1273.81 95.4 1275.41 96.58 1275.39 98.72H1268.47C1268.67 96.58 1270.15 95.4 1271.93 95.4ZM1277.05 101.62H1275.09C1274.69 102.8 1273.65 103.64 1272.01 103.64C1270.15 103.64 1268.59 102.42 1268.45 100.2H1277.21C1277.25 99.82 1277.27 99.5 1277.27 99.1C1277.27 96.1 1275.19 93.86 1272.01 93.86C1268.81 93.86 1266.59 96.04 1266.59 99.5C1266.59 102.98 1268.89 105.18 1272.01 105.18C1274.73 105.18 1276.49 103.62 1277.05 101.62ZM1287.56 102.02C1287.48 98.1 1281.12 99.52 1281.12 96.92C1281.12 96.04 1281.92 95.4 1283.26 95.4C1284.72 95.4 1285.56 96.2 1285.64 97.3H1287.46C1287.34 95.16 1285.74 93.86 1283.32 93.86C1280.88 93.86 1279.3 95.24 1279.3 96.92C1279.3 101 1285.78 99.58 1285.78 102.02C1285.78 102.92 1284.98 103.64 1283.54 103.64C1282 103.64 1281.06 102.84 1280.96 101.78H1279.08C1279.2 103.78 1281 105.18 1283.56 105.18C1285.98 105.18 1287.56 103.82 1287.56 102.02Z" fill="#11112B"/>
<rect x="203" y="36" width="336" height="1" fill="#11112B"/>
<rect x="753" y="36" width="336" height="1" fill="#11112B"/>
</svg>
