<svg width="1065" height="72" viewBox="0 0 1065 72" fill="none" xmlns="http://www.w3.org/2000/svg">
<path d="M26.3859 71.4C21.5859 71.4 17.2193 70.4 13.2859 68.4C9.41927 66.4 6.3526 63.5 4.08594 59.7C1.81927 55.9 0.685938 51.3 0.685938 45.9V44.5C0.685938 39.1 1.81927 34.5 4.08594 30.7C6.3526 26.9 9.41927 24 13.2859 22C17.2193 20 21.5859 19 26.3859 19C31.1193 19 35.1859 19.8333 38.5859 21.5C41.9859 23.1667 44.7193 25.4667 46.7859 28.4C48.9193 31.2667 50.3193 34.5333 50.9859 38.2L38.7859 40.8C38.5193 38.8 37.9193 37 36.9859 35.4C36.0526 33.8 34.7193 32.5333 32.9859 31.6C31.3193 30.6667 29.2193 30.2 26.6859 30.2C24.1526 30.2 21.8526 30.7667 19.7859 31.9C17.7859 32.9667 16.1859 34.6 14.9859 36.8C13.8526 38.9333 13.2859 41.5667 13.2859 44.7V45.7C13.2859 48.8333 13.8526 51.5 14.9859 53.7C16.1859 55.8333 17.7859 57.4667 19.7859 58.6C21.8526 59.6667 24.1526 60.2 26.6859 60.2C30.4859 60.2 33.3526 59.2333 35.2859 57.3C37.2859 55.3 38.5526 52.7 39.0859 49.5L51.2859 52.4C50.4193 55.9333 48.9193 59.1667 46.7859 62.1C44.7193 64.9667 41.9859 67.2333 38.5859 68.9C35.1859 70.5667 31.1193 71.4 26.3859 71.4ZM77.0797 71.4C73.5464 71.4 70.3797 70.8 67.5797 69.6C64.7797 68.3333 62.5464 66.5333 60.8797 64.2C59.2797 61.8 58.4797 58.9 58.4797 55.5C58.4797 52.1 59.2797 49.2667 60.8797 47C62.5464 44.6667 64.813 42.9333 67.6797 41.8C70.613 40.6 73.9464 40 77.6797 40H91.2797V37.2C91.2797 34.8667 90.5464 32.9667 89.0797 31.5C87.613 29.9667 85.2797 29.2 82.0797 29.2C78.9464 29.2 76.613 29.9333 75.0797 31.4C73.5464 32.8 72.5464 34.6333 72.0797 36.9L60.4797 33C61.2797 30.4667 62.5464 28.1667 64.2797 26.1C66.0797 23.9667 68.4464 22.2667 71.3797 21C74.3797 19.6667 78.013 19 82.2797 19C88.813 19 93.9797 20.6333 97.7797 23.9C101.58 27.1667 103.48 31.9 103.48 38.1V56.6C103.48 58.6 104.413 59.6 106.28 59.6H110.28V70H101.88C99.413 70 97.3797 69.4 95.7797 68.2C94.1797 67 93.3797 65.4 93.3797 63.4V63.3H91.4797C91.213 64.1 90.613 65.1667 89.6797 66.5C88.7464 67.7667 87.2797 68.9 85.2797 69.9C83.2797 70.9 80.5464 71.4 77.0797 71.4ZM79.2797 61.2C82.813 61.2 85.6797 60.2333 87.8797 58.3C90.1464 56.3 91.2797 53.6667 91.2797 50.4V49.4H78.5797C76.2464 49.4 74.413 49.9 73.0797 50.9C71.7464 51.9 71.0797 53.3 71.0797 55.1C71.0797 56.9 71.7797 58.3667 73.1797 59.5C74.5797 60.6333 76.613 61.2 79.2797 61.2ZM119.492 70V20.4H131.892V26.9H133.692C134.492 25.1667 135.992 23.5333 138.192 22C140.392 20.4 143.726 19.6 148.192 19.6C152.059 19.6 155.426 20.5 158.292 22.3C161.226 24.0333 163.492 26.4667 165.092 29.6C166.692 32.6667 167.492 36.2667 167.492 40.4V70H154.892V41.4C154.892 37.6667 153.959 34.8667 152.092 33C150.292 31.1333 147.692 30.2 144.292 30.2C140.426 30.2 137.426 31.5 135.292 34.1C133.159 36.6333 132.092 40.2 132.092 44.8V70H119.492ZM606.363 70C603.097 70 600.43 69 598.363 67C596.363 64.9333 595.363 62.2 595.363 58.8V30.8H582.963V20.4H595.363V5H607.963V20.4H621.563V30.8H607.963V56.6C607.963 58.6 608.897 59.6 610.763 59.6H620.363V70H606.363ZM632.969 70V-4.76837e-06H645.569V26.5H647.369C647.902 25.4333 648.735 24.3667 649.869 23.3C651.002 22.2333 652.502 21.3667 654.369 20.7C656.302 19.9667 658.735 19.6 661.669 19.6C665.535 19.6 668.902 20.5 671.769 22.3C674.702 24.0333 676.969 26.4667 678.569 29.6C680.169 32.6667 680.969 36.2667 680.969 40.4V70H668.369V41.4C668.369 37.6667 667.435 34.8667 665.569 33C663.769 31.1333 661.169 30.2 657.769 30.2C653.902 30.2 650.902 31.5 648.769 34.1C646.635 36.6333 645.569 40.2 645.569 44.8V70H632.969ZM717.19 71.4C712.257 71.4 707.89 70.3667 704.09 68.3C700.357 66.1667 697.423 63.2 695.29 59.4C693.223 55.5333 692.19 51 692.19 45.8V44.6C692.19 39.4 693.223 34.9 695.29 31.1C697.357 27.2333 700.257 24.2667 703.99 22.2C707.723 20.0667 712.057 19 716.99 19C721.857 19 726.09 20.1 729.69 22.3C733.29 24.4333 736.09 27.4333 738.09 31.3C740.09 35.1 741.09 39.5333 741.09 44.6V48.9H704.99C705.123 52.3 706.39 55.0667 708.79 57.2C711.19 59.3333 714.123 60.4 717.59 60.4C721.123 60.4 723.723 59.6333 725.39 58.1C727.057 56.5667 728.323 54.8667 729.19 53L739.49 58.4C738.557 60.1333 737.19 62.0333 735.39 64.1C733.657 66.1 731.323 67.8333 728.39 69.3C725.457 70.7 721.723 71.4 717.19 71.4ZM705.09 39.5H728.29C728.023 36.6333 726.857 34.3333 724.79 32.6C722.79 30.8667 720.157 30 716.89 30C713.49 30 710.79 30.8667 708.79 32.6C706.79 34.3333 705.557 36.6333 705.09 39.5ZM781.695 70L774.695 20.4H787.195L791.595 61.5H793.395L799.795 20.4H819.995L826.395 61.5H828.195L832.595 20.4H845.095L838.095 70H817.195L810.795 28.9H808.995L802.595 70H781.695ZM879.518 71.4C874.585 71.4 870.151 70.4 866.218 68.4C862.285 66.4 859.185 63.5 856.918 59.7C854.651 55.9 853.518 51.3333 853.518 46V44.4C853.518 39.0667 854.651 34.5 856.918 30.7C859.185 26.9 862.285 24 866.218 22C870.151 20 874.585 19 879.518 19C884.451 19 888.885 20 892.818 22C896.751 24 899.851 26.9 902.118 30.7C904.385 34.5 905.518 39.0667 905.518 44.4V46C905.518 51.3333 904.385 55.9 902.118 59.7C899.851 63.5 896.751 66.4 892.818 68.4C888.885 70.4 884.451 71.4 879.518 71.4ZM879.518 60.2C883.385 60.2 886.585 58.9667 889.118 56.5C891.651 53.9667 892.918 50.3667 892.918 45.7V44.7C892.918 40.0333 891.651 36.4667 889.118 34C886.651 31.4667 883.451 30.2 879.518 30.2C875.651 30.2 872.451 31.4667 869.918 34C867.385 36.4667 866.118 40.0333 866.118 44.7V45.7C866.118 50.3667 867.385 53.9667 869.918 56.5C872.451 58.9667 875.651 60.2 879.518 60.2ZM917.148 70V20.4H929.548V26H931.348C932.082 24 933.282 22.5333 934.948 21.6C936.682 20.6667 938.682 20.2 940.948 20.2H946.948V31.4H940.748C937.548 31.4 934.915 32.2667 932.848 34C930.782 35.6667 929.748 38.2667 929.748 41.8V70H917.148ZM956.797 70V-4.76837e-06H969.397V70H956.797ZM1003.36 71.4C999.426 71.4 995.726 70.4333 992.259 68.5C988.859 66.5 986.126 63.6 984.059 59.8C981.993 56 980.959 51.4 980.959 46V44.4C980.959 39 981.993 34.4 984.059 30.6C986.126 26.8 988.859 23.9333 992.259 22C995.659 20 999.359 19 1003.36 19C1006.36 19 1008.86 19.3667 1010.86 20.1C1012.93 20.7667 1014.59 21.6333 1015.86 22.7C1017.13 23.7667 1018.09 24.9 1018.76 26.1H1020.56V-4.76837e-06H1033.16V70H1020.76V64H1018.96C1017.83 65.8667 1016.06 67.5667 1013.66 69.1C1011.33 70.6333 1007.89 71.4 1003.36 71.4ZM1007.16 60.4C1011.03 60.4 1014.26 59.1667 1016.86 56.7C1019.46 54.1667 1020.76 50.5 1020.76 45.7V44.7C1020.76 39.9 1019.46 36.2667 1016.86 33.8C1014.33 31.2667 1011.09 30 1007.16 30C1003.29 30 1000.06 31.2667 997.459 33.8C994.859 36.2667 993.559 39.9 993.559 44.7V45.7C993.559 50.5 994.859 54.1667 997.459 56.7C1000.06 59.1667 1003.29 60.4 1007.16 60.4ZM1055.03 71.4C1052.36 71.4 1050.1 70.5333 1048.23 68.8C1046.43 67 1045.53 64.7 1045.53 61.9C1045.53 59.1 1046.43 56.8333 1048.23 55.1C1050.1 53.3 1052.36 52.4 1055.03 52.4C1057.76 52.4 1060.03 53.3 1061.83 55.1C1063.63 56.8333 1064.53 59.1 1064.53 61.9C1064.53 64.7 1063.63 67 1061.83 68.8C1060.03 70.5333 1057.76 71.4 1055.03 71.4Z" fill="#11112B"/>
</svg>
