<svg width="1150" height="479" viewBox="0 0 1150 479" fill="none" xmlns="http://www.w3.org/2000/svg">
<path d="M102.325 197V148.8L54.7251 57H84.1251L113.725 117H117.325L146.925 57H176.325L128.725 148.8V197H102.325ZM239.866 199.8C222.266 199.8 208.266 195 197.866 185.4C187.466 175.667 182.266 161.8 182.266 143.8V110.2C182.266 92.2 187.466 78.4 197.866 68.8C208.266 59.0667 222.266 54.2 239.866 54.2C257.466 54.2 271.466 59.0667 281.866 68.8C292.266 78.4 297.466 92.2 297.466 110.2V143.8C297.466 161.8 292.266 175.667 281.866 185.4C271.466 195 257.466 199.8 239.866 199.8ZM239.866 176.2C249.732 176.2 257.399 173.333 262.866 167.6C268.332 161.867 271.066 154.2 271.066 144.6V109.4C271.066 99.8 268.332 92.1333 262.866 86.4C257.399 80.6667 249.732 77.8 239.866 77.8C230.132 77.8 222.466 80.6667 216.866 86.4C211.399 92.1333 208.666 99.8 208.666 109.4V144.6C208.666 154.2 211.399 161.867 216.866 167.6C222.466 173.333 230.132 176.2 239.866 176.2ZM374.622 199.8C363.155 199.8 353.289 197.733 345.022 193.6C336.889 189.333 330.622 183.333 326.222 175.6C321.955 167.733 319.822 158.467 319.822 147.8V57H346.222V148.6C346.222 157.133 348.622 163.867 353.422 168.8C358.355 173.733 365.422 176.2 374.622 176.2C383.822 176.2 390.822 173.733 395.622 168.8C400.555 163.867 403.022 157.133 403.022 148.6V57H429.422V147.8C429.422 158.467 427.222 167.733 422.822 175.6C418.555 183.333 412.289 189.333 404.022 193.6C395.889 197.733 386.089 199.8 374.622 199.8Z" fill="#92DEED"/>
<path d="M454.997 197V57H515.797C524.597 57 532.264 58.5333 538.797 61.6C545.33 64.6667 550.397 69 553.997 74.6C557.597 80.2 559.397 86.8 559.397 94.4V96.8C559.397 105.2 557.397 112 553.397 117.2C549.397 122.4 544.464 126.2 538.597 128.6V132.2C543.93 132.467 548.064 134.333 550.997 137.8C553.93 141.133 555.397 145.6 555.397 151.2V197H528.997V155C528.997 151.8 528.13 149.2 526.397 147.2C524.797 145.2 522.064 144.2 518.197 144.2H481.397V197H454.997ZM481.397 120.2H512.997C519.264 120.2 524.13 118.533 527.597 115.2C531.197 111.733 532.997 107.2 532.997 101.6V99.6C532.997 94 531.264 89.5333 527.797 86.2C524.33 82.7333 519.397 81 512.997 81H481.397V120.2ZM628.145 197V173.8H646.545V80.2H628.145V57H700.145C708.679 57 716.079 58.4667 722.345 61.4C728.745 64.2 733.679 68.2667 737.145 73.6C740.745 78.8 742.545 85.0667 742.545 92.4V94.4C742.545 100.8 741.345 106.067 738.945 110.2C736.545 114.2 733.679 117.333 730.345 119.6C727.145 121.733 724.079 123.267 721.145 124.2V127.8C724.079 128.6 727.279 130.133 730.745 132.4C734.212 134.533 737.145 137.667 739.545 141.8C742.079 145.933 743.345 151.333 743.345 158V160C743.345 167.733 741.545 174.4 737.945 180C734.345 185.467 729.345 189.667 722.945 192.6C716.679 195.533 709.345 197 700.945 197H628.145ZM672.945 173H697.745C703.479 173 708.079 171.6 711.545 168.8C715.145 166 716.945 162 716.945 156.8V154.8C716.945 149.6 715.212 145.6 711.745 142.8C708.279 140 703.612 138.6 697.745 138.6H672.945V173ZM672.945 114.6H697.345C702.812 114.6 707.279 113.2 710.745 110.4C714.345 107.6 716.145 103.733 716.145 98.8V96.8C716.145 91.7333 714.412 87.8667 710.945 85.2C707.479 82.4 702.945 81 697.345 81H672.945V114.6ZM764.958 197V57H854.958V81H791.358V114.4H849.358V138.4H791.358V173H856.158V197H764.958ZM924.3 199.8C913.5 199.8 903.967 197.867 895.7 194C887.433 190.133 880.967 184.6 876.3 177.4C871.633 170.2 869.3 161.533 869.3 151.4V145.8H895.3V151.4C895.3 159.8 897.9 166.133 903.1 170.4C908.3 174.533 915.367 176.6 924.3 176.6C933.367 176.6 940.1 174.8 944.5 171.2C949.033 167.6 951.3 163 951.3 157.4C951.3 153.533 950.167 150.4 947.9 148C945.767 145.6 942.567 143.667 938.3 142.2C934.167 140.6 929.1 139.133 923.1 137.8L918.5 136.8C908.9 134.667 900.633 132 893.7 128.8C886.9 125.467 881.633 121.133 877.9 115.8C874.3 110.467 872.5 103.533 872.5 95C872.5 86.4667 874.5 79.2 878.5 73.2C882.633 67.0667 888.367 62.4 895.7 59.2C903.167 55.8667 911.9 54.2 921.9 54.2C931.9 54.2 940.767 55.9333 948.5 59.4C956.367 62.7333 962.5 67.8 966.9 74.6C971.433 81.2667 973.7 89.6667 973.7 99.8V105.8H947.7V99.8C947.7 94.4667 946.633 90.2 944.5 87C942.5 83.6667 939.567 81.2667 935.7 79.8C931.833 78.2 927.233 77.4 921.9 77.4C913.9 77.4 907.967 78.9333 904.1 82C900.367 84.9333 898.5 89 898.5 94.2C898.5 97.6667 899.367 100.6 901.1 103C902.967 105.4 905.7 107.4 909.3 109C912.9 110.6 917.5 112 923.1 113.2L927.7 114.2C937.7 116.333 946.367 119.067 953.7 122.4C961.167 125.733 966.967 130.133 971.1 135.6C975.233 141.067 977.3 148.067 977.3 156.6C977.3 165.133 975.1 172.667 970.7 179.2C966.433 185.6 960.3 190.667 952.3 194.4C944.433 198 935.1 199.8 924.3 199.8ZM1024.9 197V81H984.097V57H1092.1V81H1051.3V197H1024.9Z" fill="url(#paint0_linear_1_33)"/>
<path d="M192.2 403V263H249.8C258.6 263 266.333 264.8 273 268.4C279.8 271.867 285.067 276.8 288.8 283.2C292.667 289.6 294.6 297.2 294.6 306V308.8C294.6 317.467 292.6 325.067 288.6 331.6C284.733 338 279.4 343 272.6 346.6C265.933 350.067 258.333 351.8 249.8 351.8H218.6V403H192.2ZM218.6 327.8H247.2C253.467 327.8 258.533 326.067 262.4 322.6C266.267 319.133 268.2 314.4 268.2 308.4V306.4C268.2 300.4 266.267 295.667 262.4 292.2C258.533 288.733 253.467 287 247.2 287H218.6V327.8ZM292.561 403L329.361 263H375.361L412.161 403H384.961L377.361 372.2H327.361L319.761 403H292.561ZM333.561 347.8H371.161L354.161 279.6H350.561L333.561 347.8ZM428.919 403V263H489.719C498.519 263 506.186 264.533 512.719 267.6C519.252 270.667 524.319 275 527.919 280.6C531.519 286.2 533.319 292.8 533.319 300.4V302.8C533.319 311.2 531.319 318 527.319 323.2C523.319 328.4 518.386 332.2 512.519 334.6V338.2C517.852 338.467 521.986 340.333 524.919 343.8C527.852 347.133 529.319 351.6 529.319 357.2V403H502.919V361C502.919 357.8 502.052 355.2 500.319 353.2C498.719 351.2 495.986 350.2 492.119 350.2H455.319V403H428.919ZM455.319 326.2H486.919C493.186 326.2 498.052 324.533 501.519 321.2C505.119 317.733 506.919 313.2 506.919 307.6V305.6C506.919 300 505.186 295.533 501.719 292.2C498.252 288.733 493.319 287 486.919 287H455.319V326.2ZM585.342 403V287H544.542V263H652.542V287H611.742V403H585.342ZM670.52 403V263H720.72L748.52 385H752.12V263H778.12V403H727.92L700.12 281H696.52V403H670.52ZM804.505 403V263H894.505V287H830.905V320.4H888.905V344.4H830.905V379H895.705V403H804.505ZM915.247 403V263H976.047C984.847 263 992.514 264.533 999.047 267.6C1005.58 270.667 1010.65 275 1014.25 280.6C1017.85 286.2 1019.65 292.8 1019.65 300.4V302.8C1019.65 311.2 1017.65 318 1013.65 323.2C1009.65 328.4 1004.71 332.2 998.847 334.6V338.2C1004.18 338.467 1008.31 340.333 1011.25 343.8C1014.18 347.133 1015.65 351.6 1015.65 357.2V403H989.247V361C989.247 357.8 988.38 355.2 986.647 353.2C985.047 351.2 982.314 350.2 978.447 350.2H941.647V403H915.247ZM941.647 326.2H973.247C979.514 326.2 984.38 324.533 987.847 321.2C991.447 317.733 993.247 313.2 993.247 307.6V305.6C993.247 300 991.514 295.533 988.047 292.2C984.58 288.733 979.647 287 973.247 287H941.647V326.2ZM1090.21 405.8C1079.41 405.8 1069.88 403.867 1061.61 400C1053.35 396.133 1046.88 390.6 1042.21 383.4C1037.55 376.2 1035.21 367.533 1035.21 357.4V351.8H1061.21V357.4C1061.21 365.8 1063.81 372.133 1069.01 376.4C1074.21 380.533 1081.28 382.6 1090.21 382.6C1099.28 382.6 1106.01 380.8 1110.41 377.2C1114.95 373.6 1117.21 369 1117.21 363.4C1117.21 359.533 1116.08 356.4 1113.81 354C1111.68 351.6 1108.48 349.667 1104.21 348.2C1100.08 346.6 1095.01 345.133 1089.01 343.8L1084.41 342.8C1074.81 340.667 1066.55 338 1059.61 334.8C1052.81 331.467 1047.55 327.133 1043.81 321.8C1040.21 316.467 1038.41 309.533 1038.41 301C1038.41 292.467 1040.41 285.2 1044.41 279.2C1048.55 273.067 1054.28 268.4 1061.61 265.2C1069.08 261.867 1077.81 260.2 1087.81 260.2C1097.81 260.2 1106.68 261.933 1114.41 265.4C1122.28 268.733 1128.41 273.8 1132.81 280.6C1137.35 287.267 1139.61 295.667 1139.61 305.8V311.8H1113.61V305.8C1113.61 300.467 1112.55 296.2 1110.41 293C1108.41 289.667 1105.48 287.267 1101.61 285.8C1097.75 284.2 1093.15 283.4 1087.81 283.4C1079.81 283.4 1073.88 284.933 1070.01 288C1066.28 290.933 1064.41 295 1064.41 300.2C1064.41 303.667 1065.28 306.6 1067.01 309C1068.88 311.4 1071.61 313.4 1075.21 315C1078.81 316.6 1083.41 318 1089.01 319.2L1093.61 320.2C1103.61 322.333 1112.28 325.067 1119.61 328.4C1127.08 331.733 1132.88 336.133 1137.01 341.6C1141.15 347.067 1143.21 354.067 1143.21 362.6C1143.21 371.133 1141.01 378.667 1136.61 385.2C1132.35 391.6 1126.21 396.667 1118.21 400.4C1110.35 404 1101.01 405.8 1090.21 405.8Z" fill="white"/>
<path d="M42.3701 270.19L19.0001 403H5.70012L29.0701 270.19H42.3701ZM150.388 270.19L148.488 280.83H111.438L89.9681 403H76.6681L98.1381 280.83H61.2781L63.1781 270.19H150.388Z" fill="white"/>
<defs>
<linearGradient id="paint0_linear_1_33" x1="407.566" y1="-2.29482e-05" x2="1003.15" y2="312.704" gradientUnits="userSpaceOnUse">
<stop stop-color="#92DEED"/>
<stop offset="1" stop-color="white"/>
</linearGradient>
</defs>
</svg>
