<svg width="740" height="74" viewBox="0 0 740 74" fill="none" xmlns="http://www.w3.org/2000/svg">
<path d="M9.36016 72L0.160156 2H13.2602L20.0602 62.8H21.8602L30.6602 2H53.4602L62.2602 62.8H64.0602L70.8602 2H83.9602L74.7602 72H51.9602L42.9602 9.8H41.1602L32.1602 72H9.36016ZM116.018 73.4C111.085 73.4 106.718 72.3667 102.918 70.3C99.1846 68.1667 96.2513 65.2 94.118 61.4C92.0513 57.5333 91.018 53 91.018 47.8V46.6C91.018 41.4 92.0513 36.9 94.118 33.1C96.1846 29.2333 99.0846 26.2667 102.818 24.2C106.551 22.0667 110.885 21 115.818 21C120.685 21 124.918 22.1 128.518 24.3C132.118 26.4333 134.918 29.4333 136.918 33.3C138.918 37.1 139.918 41.5333 139.918 46.6V50.9H103.818C103.951 54.3 105.218 57.0667 107.618 59.2C110.018 61.3333 112.951 62.4 116.418 62.4C119.951 62.4 122.551 61.6333 124.218 60.1C125.885 58.5667 127.151 56.8667 128.018 55L138.318 60.4C137.385 62.1333 136.018 64.0333 134.218 66.1C132.485 68.1 130.151 69.8333 127.218 71.3C124.285 72.7 120.551 73.4 116.018 73.4ZM103.918 41.5H127.118C126.851 38.6333 125.685 36.3333 123.618 34.6C121.618 32.8667 118.985 32 115.718 32C112.318 32 109.618 32.8667 107.618 34.6C105.618 36.3333 104.385 38.6333 103.918 41.5ZM206.323 73.4C201.857 73.4 198.423 72.6333 196.023 71.1C193.623 69.5667 191.857 67.8667 190.723 66H188.923V72H176.523V2H189.123V28.1H190.923C191.657 26.9 192.623 25.7667 193.823 24.7C195.09 23.6333 196.723 22.7667 198.723 22.1C200.79 21.3667 203.323 21 206.323 21C210.323 21 214.023 22 217.423 24C220.823 25.9333 223.557 28.8 225.623 32.6C227.69 36.4 228.723 41 228.723 46.4V48C228.723 53.4 227.69 58 225.623 61.8C223.557 65.6 220.823 68.5 217.423 70.5C214.023 72.4333 210.323 73.4 206.323 73.4ZM202.523 62.4C206.39 62.4 209.623 61.1667 212.223 58.7C214.823 56.1667 216.123 52.5 216.123 47.7V46.7C216.123 41.9 214.823 38.2667 212.223 35.8C209.69 33.2667 206.457 32 202.523 32C198.657 32 195.423 33.2667 192.823 35.8C190.223 38.2667 188.923 41.9 188.923 46.7V47.7C188.923 52.5 190.223 56.1667 192.823 58.7C195.423 61.1667 198.657 62.4 202.523 62.4ZM262.893 73.4C257.96 73.4 253.593 72.3667 249.793 70.3C246.06 68.1667 243.126 65.2 240.993 61.4C238.926 57.5333 237.893 53 237.893 47.8V46.6C237.893 41.4 238.926 36.9 240.993 33.1C243.06 29.2333 245.96 26.2667 249.693 24.2C253.426 22.0667 257.76 21 262.693 21C267.56 21 271.793 22.1 275.393 24.3C278.993 26.4333 281.793 29.4333 283.793 33.3C285.793 37.1 286.793 41.5333 286.793 46.6V50.9H250.693C250.826 54.3 252.093 57.0667 254.493 59.2C256.893 61.3333 259.826 62.4 263.293 62.4C266.826 62.4 269.426 61.6333 271.093 60.1C272.76 58.5667 274.026 56.8667 274.893 55L285.193 60.4C284.26 62.1333 282.893 64.0333 281.093 66.1C279.36 68.1 277.026 69.8333 274.093 71.3C271.16 72.7 267.426 73.4 262.893 73.4ZM250.793 41.5H273.993C273.726 38.6333 272.56 36.3333 270.493 34.6C268.493 32.8667 265.86 32 262.593 32C259.193 32 256.493 32.8667 254.493 34.6C252.493 36.3333 251.26 38.6333 250.793 41.5ZM298.008 72V2H310.608V72H298.008ZM324.57 72V22.4H337.17V72H324.57ZM330.87 16.6C328.604 16.6 326.67 15.8667 325.07 14.4C323.537 12.9333 322.77 11 322.77 8.6C322.77 6.2 323.537 4.26666 325.07 2.8C326.67 1.33333 328.604 0.599995 330.87 0.599995C333.204 0.599995 335.137 1.33333 336.67 2.8C338.204 4.26666 338.97 6.2 338.97 8.6C338.97 11 338.204 12.9333 336.67 14.4C335.137 15.8667 333.204 16.6 330.87 16.6ZM373.733 73.4C368.799 73.4 364.433 72.3667 360.633 70.3C356.899 68.1667 353.966 65.2 351.833 61.4C349.766 57.5333 348.733 53 348.733 47.8V46.6C348.733 41.4 349.766 36.9 351.833 33.1C353.899 29.2333 356.799 26.2667 360.533 24.2C364.266 22.0667 368.599 21 373.533 21C378.399 21 382.633 22.1 386.233 24.3C389.833 26.4333 392.633 29.4333 394.633 33.3C396.633 37.1 397.633 41.5333 397.633 46.6V50.9H361.533C361.666 54.3 362.933 57.0667 365.333 59.2C367.733 61.3333 370.666 62.4 374.133 62.4C377.666 62.4 380.266 61.6333 381.933 60.1C383.599 58.5667 384.866 56.8667 385.733 55L396.033 60.4C395.099 62.1333 393.733 64.0333 391.933 66.1C390.199 68.1 387.866 69.8333 384.933 71.3C381.999 72.7 378.266 73.4 373.733 73.4ZM361.633 41.5H384.833C384.566 38.6333 383.399 36.3333 381.333 34.6C379.333 32.8667 376.699 32 373.433 32C370.033 32 367.333 32.8667 365.333 34.6C363.333 36.3333 362.099 38.6333 361.633 41.5ZM417.783 72L401.983 22.4H415.383L426.883 62.8H428.683L440.183 22.4H453.583L437.783 72H417.783ZM483.303 73.4C478.37 73.4 474.003 72.3667 470.203 70.3C466.47 68.1667 463.536 65.2 461.403 61.4C459.336 57.5333 458.303 53 458.303 47.8V46.6C458.303 41.4 459.336 36.9 461.403 33.1C463.47 29.2333 466.37 26.2667 470.103 24.2C473.836 22.0667 478.17 21 483.103 21C487.97 21 492.203 22.1 495.803 24.3C499.403 26.4333 502.203 29.4333 504.203 33.3C506.203 37.1 507.203 41.5333 507.203 46.6V50.9H471.103C471.236 54.3 472.503 57.0667 474.903 59.2C477.303 61.3333 480.236 62.4 483.703 62.4C487.236 62.4 489.836 61.6333 491.503 60.1C493.17 58.5667 494.436 56.8667 495.303 55L505.603 60.4C504.67 62.1333 503.303 64.0333 501.503 66.1C499.77 68.1 497.436 69.8333 494.503 71.3C491.57 72.7 487.836 73.4 483.303 73.4ZM471.203 41.5H494.403C494.136 38.6333 492.97 36.3333 490.903 34.6C488.903 32.8667 486.27 32 483.003 32C479.603 32 476.903 32.8667 474.903 34.6C472.903 36.3333 471.67 38.6333 471.203 41.5ZM562.809 72C559.542 72 556.875 71 554.809 69C552.809 66.9333 551.809 64.2 551.809 60.8V32.8H539.409V22.4H551.809V7H564.409V22.4H578.009V32.8H564.409V58.6C564.409 60.6 565.342 61.6 567.209 61.6H576.809V72H562.809ZM589.414 72V2H602.014V28.5H603.814C604.347 27.4333 605.181 26.3667 606.314 25.3C607.447 24.2333 608.947 23.3667 610.814 22.7C612.747 21.9667 615.181 21.6 618.114 21.6C621.981 21.6 625.347 22.5 628.214 24.3C631.147 26.0333 633.414 28.4667 635.014 31.6C636.614 34.6667 637.414 38.2667 637.414 42.4V72H624.814V43.4C624.814 39.6667 623.881 36.8667 622.014 35C620.214 33.1333 617.614 32.2 614.214 32.2C610.347 32.2 607.347 33.5 605.214 36.1C603.081 38.6333 602.014 42.2 602.014 46.8V72H589.414ZM666.435 73.4C662.902 73.4 659.735 72.8 656.935 71.6C654.135 70.3333 651.902 68.5333 650.235 66.2C648.635 63.8 647.835 60.9 647.835 57.5C647.835 54.1 648.635 51.2667 650.235 49C651.902 46.6667 654.168 44.9333 657.035 43.8C659.968 42.6 663.302 42 667.035 42H680.635V39.2C680.635 36.8667 679.902 34.9667 678.435 33.5C676.968 31.9667 674.635 31.2 671.435 31.2C668.302 31.2 665.968 31.9333 664.435 33.4C662.902 34.8 661.902 36.6333 661.435 38.9L649.835 35C650.635 32.4667 651.902 30.1667 653.635 28.1C655.435 25.9667 657.802 24.2667 660.735 23C663.735 21.6667 667.368 21 671.635 21C678.168 21 683.335 22.6333 687.135 25.9C690.935 29.1667 692.835 33.9 692.835 40.1V58.6C692.835 60.6 693.768 61.6 695.635 61.6H699.635V72H691.235C688.768 72 686.735 71.4 685.135 70.2C683.535 69 682.735 67.4 682.735 65.4V65.3H680.835C680.568 66.1 679.968 67.1667 679.035 68.5C678.102 69.7667 676.635 70.9 674.635 71.9C672.635 72.9 669.902 73.4 666.435 73.4ZM668.635 63.2C672.168 63.2 675.035 62.2333 677.235 60.3C679.502 58.3 680.635 55.6667 680.635 52.4V51.4H667.935C665.602 51.4 663.768 51.9 662.435 52.9C661.102 53.9 660.435 55.3 660.435 57.1C660.435 58.9 661.135 60.3667 662.535 61.5C663.935 62.6333 665.968 63.2 668.635 63.2ZM724.234 72C720.968 72 718.301 71 716.234 69C714.234 66.9333 713.234 64.2 713.234 60.8V32.8H700.834V22.4H713.234V7H725.834V22.4H739.434V32.8H725.834V58.6C725.834 60.6 726.768 61.6 728.634 61.6H738.234V72H724.234Z" fill="#11112B"/>
</svg>
